<?xml version="1.0" encoding="UTF-8" standalone="no"?>
<svg
    width="582.68"
    height="401.996"
   viewBox="0 0 370 210"
   fill="none"
   version="1.1"
   id="svg68"
   sodipodi:docname="f9c0f67c5659ea329f9fc253c57238de.svg"
   xmlns:inkscape="http://www.inkscape.org/namespaces/inkscape"
   xmlns:sodipodi="http://sodipodi.sourceforge.net/DTD/sodipodi-0.dtd"
   xmlns="http://www.w3.org/2000/svg"
   xmlns:svg="http://www.w3.org/2000/svg">
  <defs
     id="defs72" />
  <sodipodi:namedview
     id="namedview70"
     pagecolor="#ffffff"
     bordercolor="#666666"
     borderopacity="1.0"
     inkscape:pageshadow="2"
     inkscape:pageopacity="0.0"
     inkscape:pagecheckerboard="0" />
  <path
     d="M226.463 0H154.97C151.093 0.0138283 147.379 1.56081 144.637 4.30356C141.896 7.04631 140.349 10.7623 140.336 14.6411V192.066C140.345 195.948 141.889 199.669 144.631 202.415C147.373 205.162 151.09 206.711 154.97 206.725H226.463C230.343 206.711 234.06 205.162 236.802 202.415C239.544 199.669 241.088 195.948 241.097 192.066V14.6411C241.083 10.7623 239.537 7.04631 236.795 4.30356C234.054 1.56081 230.34 0.0138283 226.463 0"
     fill="#D1D4D4"
     id="path2" />
  <path
     d="M236.481 192.154V14.5712C236.472 11.925 235.417 9.3898 233.547 7.51865C231.677 5.64751 229.143 4.59223 226.498 4.58301H217.598C217.415 4.58299 217.234 4.61931 217.066 4.68985C216.897 4.76038 216.744 4.86374 216.615 4.99392C216.487 5.1241 216.385 5.27851 216.317 5.4482C216.249 5.61788 216.215 5.79946 216.217 5.9824V5.9824C216.212 7.57225 215.579 9.09566 214.455 10.2199C213.332 11.3441 211.809 11.9777 210.22 11.9823H171.178C169.59 11.9777 168.069 11.3435 166.948 10.2188C165.828 9.09409 165.198 7.57064 165.198 5.9824V5.9824C165.198 5.61126 165.051 5.25532 164.788 4.99288C164.526 4.73044 164.17 4.58301 163.799 4.58301H154.9C152.257 4.59225 149.724 5.64809 147.857 7.51973C145.989 9.39137 144.939 11.9266 144.934 14.5712V192.154C144.943 194.797 145.996 197.329 147.862 199.2C149.729 201.071 152.258 202.128 154.9 202.142H226.585C229.23 202.133 231.764 201.077 233.634 199.206C235.505 197.335 236.559 194.8 236.569 192.154"
     fill="white"
     id="path4" />
  <path
     d="M196.25 5.82495H185.532C185.277 5.82495 185.033 5.92631 184.852 6.10674C184.672 6.28716 184.571 6.53187 184.571 6.78703C184.571 7.04219 184.672 7.2869 184.852 7.46733C185.033 7.64775 185.277 7.74911 185.532 7.74911H196.303C196.558 7.74911 196.802 7.64775 196.982 7.46733C197.163 7.2869 197.264 7.04219 197.264 6.78703C197.264 6.53187 197.163 6.28716 196.982 6.10674C196.802 5.92631 196.558 5.82495 196.303 5.82495"
     fill="#CCCCCC"
     id="path6" />
  <path
     d="M203.646 6.78721C203.629 6.46667 203.519 6.15802 203.33 5.89856C203.141 5.63911 202.881 5.43996 202.581 5.32518C202.282 5.21041 201.955 5.18492 201.641 5.2518C201.327 5.31868 201.04 5.47507 200.813 5.70205C200.586 5.92904 200.43 6.21692 200.363 6.53089C200.296 6.84486 200.321 7.17148 200.436 7.47127C200.551 7.77106 200.75 8.03119 201.009 8.22022C201.269 8.40925 201.577 8.51908 201.897 8.53645C202.131 8.55191 202.365 8.51726 202.584 8.43482C202.804 8.35238 203.003 8.22406 203.168 8.05844C203.334 7.89281 203.462 7.69372 203.544 7.47448C203.627 7.25525 203.661 7.02093 203.646 6.78721"
     fill="#CCCCCC"
     id="path8" />
  <path
     d="M143.57 49.3986C142.504 48.6989 141.49 50.0983 140.685 49.7484C139.881 49.3986 140.073 46.8972 140.336 44.5007C140.598 42.1043 139.531 42.7515 138.989 43.3462C137.262 46.1227 135.926 49.1248 135.021 52.2673L124.775 65.2292L131.943 68.4303L137.87 55.4335C142.399 51.935 144.287 49.8534 143.57 49.3811"
     fill="#F2CFB0"
     id="path10" />
  <path
     d="M104.021 51.2177L107.71 49.4685L109.021 49.8533C109.021 49.8533 114.984 62.098 116.715 69.0949C121.82 67.9754 126.348 62.5178 131.506 55.8007L136.751 59.2992C134.828 70.2494 124.932 84.8206 117.344 85.0305C115.52 85.0572 113.707 84.7489 111.994 84.1209V73.8879C110.844 73.4002 109.739 72.815 108.689 72.1386L104.021 51.2177Z"
     fill="#A70034"
     id="path12" />
  <path
     d="M51.009 112.808C54.5058 111.322 59.4713 108.54 60.2931 107.561C61.4587 106.091 64.9206 97.7067 70.6787 82.4067L79.2285 84.156C70.6262 100.202 66.0104 108.704 65.381 109.66C63.9823 111.829 65.381 115.8 65.7656 117.881C65.5684 117.908 65.3684 117.908 65.1712 117.881C64.1571 117.881 63.7375 117.112 63.2654 116.324C63.1511 116.021 62.9778 115.744 62.7555 115.508C62.5331 115.272 62.2662 115.083 61.9702 114.951C61.6742 114.819 61.355 114.747 61.0311 114.74C60.7072 114.733 60.385 114.789 60.0833 114.908C56.5865 115.765 53.6141 118.004 50.3446 114.908C49.925 114.54 49.6452 113.386 51.009 112.791"
     fill="#F2CFB0"
     id="path14" />
  <path
     d="M101.398 130.353C111.452 130.353 126.995 134.919 126.995 134.919C126.995 134.919 117.117 141.688 105.577 141.688C94.0376 141.688 78.1794 137.315 78.1794 137.315C78.1794 137.315 91.3275 130.318 101.398 130.318"
     fill="#0067B2"
     id="path16" />
  <path
     d="M118.725 172.632C121.575 182.134 124.931 191.477 128.779 200.62C130.212 203.839 135.545 201.11 134.601 198.504C133.657 195.897 126.628 160.02 123.201 149C122.117 142.003 114.459 106.721 112.711 101.106H87.1838C89.3693 108.453 112.099 148.843 113.48 152.586C113.55 152.764 113.638 152.934 113.742 153.093C114.651 157.221 116.47 164.516 118.725 172.632"
     fill="#F2CFB0"
     id="path18" />
  <path
     d="M85.6801 169.973C84.5983 179.849 84.0496 189.776 84.0366 199.71C84.0366 203.209 90.0687 202.806 90.226 200.025C90.3834 197.244 97.8841 161.542 99.0555 149.997C100.804 143.105 107.448 107.63 108.06 101.806L84.5612 91.8174C83.7569 99.4965 88.8448 145.554 88.6874 149.542C88.6701 149.728 88.6701 149.916 88.6874 150.102C87.9006 154.265 86.7292 161.699 85.6277 170.043"
     fill="#F2CFB0"
     id="path20" />
  <path
     d="M86.0298 200.533C87.1201 200.408 88.183 200.106 89.1769 199.64L89.9112 197.891L90.0162 197.751L90.156 197.664H90.3309H90.5057L102.08 202.912C102.08 202.912 103.461 203.121 105.577 203.384C107.693 203.646 106.696 206.882 106.696 206.882H81.7811C81.5689 205.726 81.4346 204.558 81.379 203.384L82.2182 200.41L82.3756 200.095L82.6553 199.868L83.005 199.763H83.3547L86.0298 200.533Z"
     fill="#4D4D4D"
     id="path22" />
  <path
     d="M131.086 200.497C132.173 200.37 133.231 200.063 134.216 199.588L134.968 197.839L135.073 197.699L135.213 197.594H135.388H135.562L147.137 202.841C147.137 202.841 148.518 203.051 150.634 203.314C152.749 203.576 151.753 206.812 151.753 206.812H126.82C126.624 205.655 126.495 204.486 126.436 203.314L127.275 200.305L127.432 199.99L127.712 199.763L128.044 199.658H128.394L131.086 200.497Z"
     fill="#4D4D4D"
     id="path24" />
  <path
     d="M77.987 137.28C93.443 130.003 111.976 142.79 126.943 135.321C125.614 113.7 118.201 108.103 115.019 93.9866C101.696 89.7184 86.7641 93.9866 86.7641 93.9866C79.7704 102.593 73.5286 127.1 77.9346 137.28"
     fill="#00A3E3"
     id="path26" />
  <path
     d="M107.71 57.7249L107.937 43.2237C110.822 45.6551 113.812 47.072 115.351 46.9321C119.197 46.5647 121.663 33.0781 119.634 27.3056C117.606 21.5332 103.287 16.8977 100.874 27.3056C100.187 30.8307 100.922 34.4845 102.92 37.4687L95.9258 55.8357L107.71 57.7249Z"
     fill="#F2CFB0"
     id="path28" />
  <path
     d="M120.736 25.9761L120.893 26.3784V26.8332C120.769 27.0556 120.603 27.2517 120.404 27.4105C119.951 27.7406 119.432 27.9675 118.883 28.0752C116.837 28.565 114.686 28.3551 112.658 28.9848C111.772 29.3199 110.963 29.8317 110.28 30.4891C109.599 31.1562 109.058 31.9532 108.689 32.8331C108.169 32.3098 107.537 31.9119 106.84 31.6694C106.143 31.427 105.4 31.3464 104.668 31.4337C104.114 31.69 103.651 32.1078 103.339 32.6323C103.027 33.1567 102.881 33.7633 102.92 34.3724C102.868 35.4921 103.25 36.5885 103.986 37.4336C104.133 37.5749 104.262 37.7335 104.371 37.9059L104.283 38.2732C103.978 38.6282 103.632 38.9453 103.252 39.2178C102.762 39.5175 102.206 39.6917 101.632 39.7253C101.059 39.7589 100.486 39.6507 99.9647 39.4102C99.4125 39.1877 98.8802 38.9185 98.3737 38.6056C97.8405 38.3083 97.3319 37.969 96.8525 37.591C96.3667 37.1555 95.9741 36.6258 95.6986 36.0342C95.4112 35.4505 95.2503 34.8127 95.2265 34.1625C95.1563 32.6776 95.3155 31.1908 95.6986 29.7544C96.0377 28.2619 96.5727 26.8209 97.2897 25.4688C97.9061 24.2033 98.761 23.0689 99.8074 22.1278C98.391 21.6138 97.1692 20.6725 96.3105 19.4339C95.3694 17.5086 94.9075 15.3841 94.9643 13.2416C95.0427 12.1943 95.3406 11.1751 95.8385 10.2504C96.1833 9.74526 96.6227 9.31164 97.1323 8.9735C97.6653 8.63463 98.2592 8.40291 98.8807 8.2913H99.2479L99.4752 8.08139C99.6476 7.80662 99.8665 7.56394 100.122 7.3642C100.672 6.92106 101.33 6.63138 102.028 6.52457C102.73 6.36714 103.459 6.36714 104.161 6.52457C104.831 6.68319 105.439 7.03613 105.909 7.53913C106.102 7.74904 106.207 7.94145 106.504 7.90647C106.801 7.87148 107.046 7.80151 107.343 7.78402C107.998 7.73421 108.657 7.83596 109.266 8.08139C109.871 8.32552 110.401 8.7235 110.805 9.23589C111.166 9.76694 111.427 10.3599 111.574 10.9851C112.062 12.3024 112.328 13.6915 112.361 15.0958C112.311 16.5884 111.871 18.0418 111.085 19.3115C112.771 19.492 114.418 19.9408 115.963 20.6409C117.971 21.986 119.635 23.7833 120.823 25.8886"
     fill="#1A1747"
     id="path30" />
  <path
     d="M83.6519 100.546C83.6519 100.546 105.245 94.8787 115.473 94.8787C112.623 90.8379 116.207 72.5584 115.998 71.4914C112.011 59.9639 115.333 67.2757 107.71 49.521L98.496 48.0691C90.8729 60.3138 83.04 80.3075 83.6519 100.546"
     fill="white"
     id="path32" />
  <path
     d="M60.433 107.316C64.7457 80.4941 77.2353 60.7452 97.9016 48.0691H101.608C101.608 48.0691 114.022 90.3831 108.462 104.447H79.6481C80.2107 97.2641 81.5173 90.1591 83.5471 83.2463C77.043 95.0011 71.5704 103.462 67.1294 108.628L60.433 107.316Z"
     fill="#E61657"
     id="path34" />
  <path
     d="M224.977 183.95H156.788C155.584 183.945 154.43 183.464 153.579 182.613C152.727 181.761 152.247 180.607 152.242 179.402V169.676C152.247 168.471 152.727 167.317 153.579 166.465C154.43 165.613 155.584 165.133 156.788 165.128H224.977C226.181 165.133 227.334 165.613 228.186 166.465C229.037 167.317 229.518 168.471 229.522 169.676V179.402C229.518 180.607 229.037 181.761 228.186 182.613C227.334 183.464 226.181 183.945 224.977 183.95"
     fill="#0067B2"
     id="path36" />
  <path
     d="M214.067 34.6524C214.069 34.1759 214.25 33.7176 214.574 33.368C214.897 33.0183 215.34 32.8025 215.815 32.7632C216.045 32.7809 216.269 32.8438 216.474 32.9485C216.68 33.0531 216.863 33.1974 217.012 33.373C217.162 33.5486 217.275 33.752 217.345 33.9716C217.416 34.1912 217.443 34.4225 217.423 34.6524H214.067ZM219.312 36.0343C219.336 35.7549 219.336 35.474 219.312 35.1947C219.358 34.7271 219.306 34.2551 219.16 33.8087C219.013 33.3624 218.775 32.9515 218.461 32.6025C218.146 32.2535 217.763 31.9739 217.334 31.7817C216.906 31.5895 216.442 31.4889 215.972 31.4863C215.442 31.4915 214.919 31.6063 214.436 31.8233C213.952 32.0403 213.519 32.355 213.163 32.7475C212.806 33.1401 212.535 33.602 212.366 34.1044C212.196 34.6068 212.132 35.1387 212.178 35.6669C212.14 36.1988 212.219 36.7325 212.408 37.231C212.597 37.7296 212.892 38.1809 213.273 38.5538C213.654 38.9266 214.112 39.212 214.614 39.3901C215.116 39.5682 215.651 39.6348 216.182 39.5852C217.107 39.5971 218.026 39.437 218.892 39.1129L218.595 37.766C217.905 38.0115 217.176 38.1301 216.444 38.1159C216.153 38.1552 215.858 38.133 215.576 38.0508C215.294 37.9686 215.033 37.8281 214.809 37.6385C214.585 37.449 214.403 37.2145 214.275 36.9502C214.147 36.6859 214.076 36.3977 214.067 36.1043L219.312 36.0343ZM208.664 36.0343C208.692 36.2257 208.692 36.4201 208.664 36.6115C208.579 37.0094 208.357 37.365 208.038 37.6172C207.719 37.8694 207.322 38.0025 206.915 37.9934C205.674 37.9934 204.975 36.9614 204.975 35.5445C204.975 34.1276 205.674 32.9731 206.933 32.9731C207.34 32.9641 207.737 33.0971 208.056 33.3493C208.375 33.6016 208.596 33.9572 208.681 34.355C208.699 34.5237 208.699 34.6936 208.681 34.8623L208.664 36.0343ZM208.664 28.0753V32.4833C208.418 32.1393 208.088 31.8639 207.705 31.6833C207.323 31.5027 206.9 31.4228 206.478 31.4513C205.969 31.4739 205.471 31.6017 205.014 31.8266C204.557 32.0515 204.151 32.3687 203.823 32.7582C203.494 33.1476 203.25 33.6009 203.105 34.0895C202.96 34.5781 202.918 35.0913 202.982 35.597C202.915 36.0786 202.95 36.5687 203.084 37.0361C203.218 37.5035 203.448 37.9378 203.759 38.3114C204.069 38.685 204.455 38.9897 204.89 39.206C205.325 39.4223 205.801 39.5455 206.286 39.5677C206.796 39.59 207.303 39.4712 207.75 39.2243C208.197 38.9775 208.568 38.6121 208.821 38.1684V38.1684L208.909 39.3928H210.657C210.657 38.8681 210.657 38.0109 210.657 37.2063V27.9878L208.664 28.0753ZM197.964 32.8857C199.292 32.8857 199.834 34.285 199.834 35.492C199.834 37.0488 199.065 38.1509 197.946 38.1509C196.827 38.1509 196.023 37.0139 196.023 35.527C196.023 34.0402 196.565 32.8857 197.964 32.8857V32.8857ZM197.964 31.4513C197.422 31.425 196.881 31.5142 196.376 31.7129C195.871 31.9117 195.414 32.2154 195.036 32.6041C194.657 32.9927 194.366 33.4574 194.18 33.9673C193.995 34.4773 193.919 35.0208 193.96 35.562C193.928 36.0783 194.004 36.5956 194.182 37.0811C194.361 37.5667 194.638 38.01 194.996 38.3831C195.354 38.7562 195.785 39.051 196.263 39.2488C196.741 39.4467 197.254 39.5434 197.771 39.5328C198.312 39.5539 198.852 39.4605 199.355 39.2586C199.857 39.0567 200.312 38.7509 200.688 38.3612C201.064 37.9715 201.354 37.5067 201.538 36.9972C201.723 36.4877 201.797 35.945 201.758 35.4046C201.784 34.8919 201.705 34.3792 201.524 33.8987C201.343 33.4182 201.065 32.9803 200.707 32.6124C200.35 32.2445 199.919 31.9546 199.444 31.7608C198.969 31.567 198.459 31.4735 197.946 31.4863L197.964 31.4513ZM192.701 37.5736C192.021 37.8376 191.297 37.9683 190.568 37.9584C190.056 37.9974 189.542 37.9231 189.062 37.7408C188.582 37.5585 188.148 37.2727 187.79 36.9037C187.433 36.5347 187.162 36.0916 186.995 35.6057C186.828 35.1199 186.771 34.6033 186.826 34.0926C186.756 33.5736 186.804 33.0456 186.965 32.5474C187.126 32.0492 187.397 31.5936 187.758 31.2141C188.119 30.8347 188.56 30.5412 189.05 30.3552C189.539 30.1691 190.064 30.0954 190.585 30.1394C191.306 30.1295 192.021 30.2725 192.683 30.5592L193.12 28.9849C192.294 28.6494 191.407 28.4886 190.515 28.5126C189.756 28.4648 188.995 28.5781 188.282 28.845C187.569 29.112 186.921 29.5266 186.379 30.0617C185.838 30.5967 185.416 31.2402 185.14 31.95C184.865 32.6597 184.742 33.4197 184.781 34.1801C184.727 34.9096 184.833 35.642 185.09 36.3267C185.347 37.0115 185.75 37.6322 186.27 38.1461C186.79 38.66 187.416 39.0548 188.104 39.3033C188.791 39.5517 189.525 39.6479 190.253 39.5852C191.203 39.6243 192.15 39.4634 193.033 39.1129L192.701 37.5736ZM176.283 39.4278H178.241V35.3521C178.221 35.1485 178.221 34.9434 178.241 34.7399C178.305 34.3227 178.516 33.9425 178.838 33.6693C179.159 33.3961 179.568 33.2482 179.99 33.253C180.182 33.2316 180.375 33.2316 180.567 33.253V31.4863C180.41 31.4672 180.252 31.4672 180.095 31.4863C179.613 31.5098 179.151 31.6824 178.772 31.9801C178.393 32.2778 178.116 32.6859 177.979 33.148V33.148V31.6612H176.231C176.231 32.3784 176.231 33.1131 176.231 34.1801L176.283 39.4278ZM167.174 39.4278H169.15V34.7224C169.12 34.5252 169.12 34.3247 169.15 34.1276C169.258 33.8091 169.463 33.532 169.735 33.3347C170.008 33.1373 170.334 33.0293 170.671 33.0256C171.755 33.0256 172.174 33.8827 172.174 35.0022V39.3578H174.133V34.7923C174.133 32.3084 172.734 31.4163 171.423 31.4163C170.952 31.4177 170.488 31.538 170.076 31.7661C169.684 31.9825 169.349 32.2881 169.097 32.6583V32.6583V27.9878H167.121L167.174 39.4278ZM162.943 39.4278H164.901V28.6175H162.943V39.4278Z"
     fill="#4D4D4E"
     id="path38" />
  <path
     d="M212.073 110.202H208.576C208.113 110.202 207.668 110.386 207.34 110.714C207.012 111.042 206.828 111.487 206.828 111.951V115.45C206.828 115.914 207.012 116.358 207.34 116.687C207.668 117.015 208.113 117.199 208.576 117.199H212.073C212.537 117.199 212.982 117.015 213.31 116.687C213.637 116.358 213.822 115.914 213.822 115.45V111.951C213.822 111.487 213.637 111.042 213.31 110.714C212.982 110.386 212.537 110.202 212.073 110.202ZM221.235 110.202H217.738C217.274 110.202 216.83 110.386 216.502 110.714C216.174 111.042 215.99 111.487 215.99 111.951V115.45C215.99 115.914 216.174 116.358 216.502 116.687C216.83 117.015 217.274 117.199 217.738 117.199H221.235C221.699 117.199 222.143 117.015 222.471 116.687C222.799 116.358 222.983 115.914 222.983 115.45V111.951C222.983 111.487 222.799 111.042 222.471 110.714C222.143 110.386 221.699 110.202 221.235 110.202ZM220.658 89.5609C220.357 89.5586 220.058 89.6163 219.779 89.7306C219.5 89.8449 219.246 90.0136 219.033 90.2269C218.82 90.4401 218.651 90.6937 218.537 90.9727C218.423 91.2518 218.365 91.5508 218.368 91.8524V101.036H209.206V91.9049C209.208 91.6033 209.151 91.3043 209.036 91.0252C208.922 90.7462 208.753 90.4926 208.54 90.2794C208.327 90.0661 208.074 89.8974 207.795 89.7831C207.516 89.6687 207.217 89.6111 206.915 89.6134H197.771C197.47 89.6111 197.171 89.6687 196.892 89.7831C196.613 89.8974 196.36 90.0661 196.146 90.2794C195.933 90.4926 195.765 90.7462 195.65 91.0252C195.536 91.3043 195.478 91.6033 195.481 91.9049V114.855C195.481 115.463 195.722 116.045 196.152 116.475C196.581 116.905 197.164 117.146 197.771 117.146C198.379 117.146 198.961 116.905 199.391 116.475C199.82 116.045 200.062 115.463 200.062 114.855V94.2139H204.66V103.38C204.655 103.682 204.711 103.982 204.825 104.262C204.938 104.543 205.107 104.797 205.32 105.011C205.534 105.224 205.788 105.393 206.068 105.507C206.348 105.62 206.648 105.676 206.95 105.671H220.693C220.995 105.676 221.295 105.62 221.575 105.507C221.855 105.393 222.109 105.224 222.323 105.011C222.537 104.797 222.705 104.543 222.819 104.262C222.932 103.982 222.988 103.682 222.983 103.38V91.9049C222.986 91.6033 222.928 91.3043 222.814 91.0252C222.7 90.7462 222.531 90.4926 222.318 90.2794C222.105 90.0661 221.851 89.8974 221.572 89.7831C221.293 89.6687 220.994 89.6111 220.693 89.6134L220.658 89.5609ZM218.403 73.5729C218.405 73.8745 218.347 74.1735 218.233 74.4526C218.119 74.7316 217.95 74.9852 217.737 75.1984C217.524 75.4117 217.27 75.5804 216.991 75.6947C216.712 75.809 216.414 75.8667 216.112 75.8644H202.37C202.067 75.8691 201.766 75.8131 201.485 75.6998C201.204 75.5865 200.948 75.4182 200.733 75.2047C200.518 74.9912 200.348 74.7369 200.233 74.4567C200.117 74.1764 200.059 73.8759 200.062 73.5729V59.8064C200.059 59.5033 200.117 59.2028 200.233 58.9226C200.348 58.6424 200.518 58.388 200.733 58.1746C200.948 57.9611 201.204 57.7927 201.485 57.6795C201.766 57.5662 202.067 57.5102 202.37 57.5149H216.112C216.414 57.5102 216.714 57.5662 216.994 57.6797C217.274 57.7932 217.529 57.9618 217.742 58.1755C217.956 58.3893 218.124 58.6438 218.238 58.9239C218.351 59.2041 218.407 59.5042 218.403 59.8064V73.5729ZM216.112 52.9319H202.37C200.554 52.9589 198.82 53.6913 197.534 54.9742C196.249 56.2571 195.512 57.99 195.481 59.8064V73.5729C195.508 75.3864 196.237 77.1186 197.516 78.4043C198.794 79.69 200.522 80.4288 202.335 80.4649H216.077C217.89 80.4334 219.619 79.699 220.901 78.4166C222.183 77.1341 222.917 75.4038 222.948 73.5904V59.8064C222.917 57.993 222.183 56.2627 220.901 54.9802C219.619 53.6977 217.89 52.9634 216.077 52.9319H216.112ZM210.919 63.2524H207.422C206.959 63.2524 206.514 63.4367 206.186 63.7647C205.858 64.0928 205.674 64.5377 205.674 65.0016V68.5001C205.674 68.964 205.858 69.4089 206.186 69.737C206.514 70.065 206.959 70.2493 207.422 70.2493H210.919C211.153 70.2648 211.387 70.2301 211.606 70.1477C211.825 70.0653 212.024 69.9369 212.19 69.7713C212.355 69.6057 212.484 69.4066 212.566 69.1874C212.649 68.9681 212.683 68.7338 212.668 68.5001V65.0016C212.683 64.7679 212.649 64.5336 212.566 64.3143C212.484 64.0951 212.355 63.896 212.19 63.7304C212.024 63.5648 211.825 63.4364 211.606 63.354C211.387 63.2716 211.153 63.2369 210.919 63.2524V63.2524ZM181.703 73.5729C181.706 73.8759 181.647 74.1764 181.532 74.4567C181.417 74.7369 181.246 74.9912 181.031 75.2047C180.816 75.4182 180.561 75.5865 180.28 75.6998C179.999 75.8131 179.698 75.8691 179.395 75.8644H165.653C165.351 75.8667 165.052 75.809 164.774 75.6947C164.495 75.5804 164.241 75.4117 164.028 75.1984C163.815 74.9852 163.646 74.7316 163.532 74.4526C163.418 74.1735 163.36 73.8745 163.362 73.5729V59.8064C163.358 59.5042 163.414 59.2041 163.527 58.9239C163.641 58.6438 163.809 58.3893 164.023 58.1755C164.236 57.9618 164.491 57.7932 164.771 57.6797C165.051 57.5662 165.351 57.5102 165.653 57.5149H179.395C179.698 57.5102 179.999 57.5662 180.28 57.6795C180.561 57.7927 180.816 57.9611 181.031 58.1746C181.246 58.388 181.417 58.6424 181.532 58.9226C181.647 59.2028 181.706 59.5033 181.703 59.8064V73.5729ZM179.395 52.9319H165.653C163.837 52.9589 162.103 53.6913 160.818 54.9742C159.532 56.2571 158.796 57.99 158.764 59.8064V73.5729C158.791 75.3923 159.526 77.1296 160.812 78.4163C162.098 79.703 163.834 80.4378 165.653 80.4649H179.395C181.211 80.4379 182.945 79.7055 184.23 78.4226C185.516 77.1396 186.253 75.4068 186.284 73.5904V59.8064C186.253 57.99 185.516 56.2571 184.23 54.9742C182.945 53.6913 181.211 52.9589 179.395 52.9319V52.9319ZM181.703 110.202C181.706 110.505 181.647 110.805 181.532 111.086C181.417 111.366 181.246 111.62 181.031 111.834C180.816 112.047 180.561 112.216 180.28 112.329C179.999 112.442 179.698 112.498 179.395 112.493H165.653C165.351 112.498 165.051 112.442 164.771 112.329C164.491 112.215 164.236 112.047 164.023 111.833C163.809 111.619 163.641 111.365 163.527 111.084C163.414 110.804 163.358 110.504 163.362 110.202V96.5054C163.358 96.2032 163.414 95.9031 163.527 95.6229C163.641 95.3428 163.809 95.0883 164.023 94.8745C164.236 94.6608 164.491 94.4922 164.771 94.3787C165.051 94.2652 165.351 94.2092 165.653 94.2139H179.395C179.698 94.2092 179.999 94.2652 180.28 94.3785C180.561 94.4917 180.816 94.6601 181.031 94.8736C181.246 95.087 181.417 95.3414 181.532 95.6216C181.647 95.9018 181.706 96.2023 181.703 96.5054V110.202ZM179.395 89.5609H165.653C163.834 89.588 162.098 90.3228 160.812 91.6095C159.526 92.8962 158.791 94.6335 158.764 96.4529V110.202C158.764 112.04 159.486 113.804 160.775 115.113C162.064 116.422 163.816 117.171 165.653 117.199H179.395C181.232 117.171 182.984 116.422 184.273 115.113C185.562 113.804 186.284 112.04 186.284 110.202V96.5054C186.257 94.686 185.523 92.9486 184.236 91.662C182.95 90.3753 181.214 89.6405 179.395 89.6134V89.5609ZM174.15 63.2524H170.653C170.19 63.2524 169.745 63.4367 169.417 63.7647C169.089 64.0928 168.905 64.5377 168.905 65.0016V68.5001C168.905 68.964 169.089 69.4089 169.417 69.737C169.745 70.065 170.19 70.2493 170.653 70.2493H174.15C174.614 70.2493 175.059 70.065 175.386 69.737C175.714 69.4089 175.899 68.964 175.899 68.5001V65.0016C175.899 64.5377 175.714 64.0928 175.386 63.7647C175.059 63.4367 174.614 63.2524 174.15 63.2524ZM174.15 99.9864H170.653C170.19 99.9864 169.745 100.171 169.417 100.499C169.089 100.827 168.905 101.272 168.905 101.736V105.234C168.905 105.698 169.089 106.143 169.417 106.471C169.745 106.799 170.19 106.983 170.653 106.983H174.15C174.614 106.983 175.059 106.799 175.386 106.471C175.714 106.143 175.899 105.698 175.899 105.234V101.736C175.899 101.272 175.714 100.827 175.386 100.499C175.059 100.171 174.614 99.9864 174.15 99.9864Z"
     fill="#0067B2"
     id="path40" />
  <path
     d="M184.623 149.665H183.067C182.945 149.66 182.829 149.608 182.744 149.52C182.66 149.432 182.612 149.315 182.612 149.192V147.653C182.612 147.531 182.66 147.413 182.744 147.325C182.829 147.237 182.945 147.185 183.067 147.181H184.623C184.684 147.181 184.745 147.193 184.801 147.217C184.857 147.241 184.908 147.276 184.951 147.32C184.993 147.364 185.026 147.416 185.048 147.474C185.07 147.531 185.08 147.592 185.078 147.653V149.192C185.08 149.254 185.07 149.315 185.048 149.372C185.026 149.429 184.993 149.481 184.951 149.525C184.908 149.57 184.857 149.605 184.801 149.629C184.745 149.652 184.684 149.665 184.623 149.665V149.665ZM177.21 149.665H175.654C175.532 149.66 175.416 149.608 175.331 149.52C175.246 149.432 175.199 149.315 175.199 149.192V147.653C175.199 147.531 175.246 147.413 175.331 147.325C175.416 147.237 175.532 147.185 175.654 147.181H177.21C177.332 147.185 177.448 147.237 177.532 147.325C177.617 147.413 177.664 147.531 177.664 147.653V149.192C177.664 149.315 177.617 149.432 177.532 149.52C177.448 149.608 177.332 149.66 177.21 149.665V149.665ZM180.916 149.665H179.36C179.238 149.66 179.123 149.608 179.038 149.52C178.953 149.432 178.906 149.315 178.906 149.192V147.653C178.906 147.531 178.953 147.413 179.038 147.325C179.123 147.237 179.238 147.185 179.36 147.181H180.916C181.039 147.185 181.154 147.237 181.239 147.325C181.324 147.413 181.371 147.531 181.371 147.653V149.192C181.371 149.315 181.324 149.432 181.239 149.52C181.154 149.608 181.039 149.66 180.916 149.665ZM184.623 145.956H183.067C182.945 145.952 182.829 145.9 182.744 145.812C182.66 145.724 182.612 145.606 182.612 145.484V143.945C182.612 143.822 182.66 143.705 182.744 143.617C182.829 143.529 182.945 143.477 183.067 143.472H184.623C184.684 143.472 184.745 143.485 184.801 143.509C184.857 143.533 184.908 143.568 184.951 143.612C184.993 143.656 185.026 143.708 185.048 143.765C185.07 143.823 185.08 143.884 185.078 143.945V145.484C185.08 145.545 185.07 145.606 185.048 145.663C185.026 145.721 184.993 145.773 184.951 145.817C184.908 145.861 184.857 145.896 184.801 145.92C184.745 145.944 184.684 145.956 184.623 145.956V145.956ZM180.916 145.956H179.36C179.238 145.952 179.123 145.9 179.038 145.812C178.953 145.724 178.906 145.606 178.906 145.484V143.945C178.906 143.822 178.953 143.705 179.038 143.617C179.123 143.529 179.238 143.477 179.36 143.472H180.916C181.039 143.477 181.154 143.529 181.239 143.617C181.324 143.705 181.371 143.822 181.371 143.945V145.484C181.371 145.606 181.324 145.724 181.239 145.812C181.154 145.9 181.039 145.952 180.916 145.956ZM177.21 145.956H175.654C175.532 145.952 175.416 145.9 175.331 145.812C175.246 145.724 175.199 145.606 175.199 145.484V143.945C175.199 143.822 175.246 143.705 175.331 143.617C175.416 143.529 175.532 143.477 175.654 143.472H177.21C177.332 143.477 177.448 143.529 177.532 143.617C177.617 143.705 177.664 143.822 177.664 143.945V145.484C177.664 145.606 177.617 145.724 177.532 145.812C177.448 145.9 177.332 145.952 177.21 145.956V145.956ZM186.948 152.184H173.293C173.129 152.184 172.972 152.12 172.854 152.005C172.737 151.891 172.668 151.735 172.664 151.571V141.076H187.508V151.571C187.508 151.734 187.443 151.89 187.329 152.004C187.214 152.119 187.058 152.184 186.896 152.184H186.948ZM173.293 137.28H186.896C187.06 137.285 187.216 137.353 187.33 137.471C187.444 137.588 187.508 137.746 187.508 137.91V139.764H172.664V137.91C172.664 137.827 172.68 137.745 172.712 137.669C172.743 137.592 172.79 137.523 172.848 137.465C172.907 137.406 172.976 137.36 173.052 137.328C173.129 137.296 173.211 137.28 173.293 137.28ZM186.896 136.056H185.025V134.044C185.028 133.983 185.018 133.922 184.996 133.865C184.974 133.807 184.941 133.755 184.898 133.711C184.856 133.667 184.805 133.632 184.749 133.608C184.692 133.584 184.632 133.572 184.571 133.572H184.256C184.134 133.576 184.018 133.628 183.933 133.716C183.849 133.804 183.801 133.922 183.801 134.044V136.056H176.371V134.044C176.371 133.922 176.323 133.804 176.239 133.716C176.154 133.628 176.038 133.576 175.916 133.572H175.601C175.479 133.576 175.363 133.628 175.279 133.716C175.194 133.804 175.147 133.922 175.147 134.044V136.056H173.293C172.82 136.083 172.375 136.29 172.05 136.635C171.725 136.979 171.544 137.436 171.545 137.91V151.519C171.548 151.992 171.73 152.446 172.055 152.79C172.379 153.134 172.822 153.342 173.293 153.373H186.896C187.386 153.369 187.855 153.172 188.201 152.825C188.548 152.478 188.745 152.009 188.749 151.519V137.91C188.749 137.666 188.701 137.425 188.608 137.2C188.515 136.975 188.379 136.771 188.206 136.599C188.034 136.427 187.83 136.29 187.605 136.197C187.38 136.104 187.139 136.056 186.896 136.056"
     fill="#4D4D4D"
     id="path42" />
  <path
     d="M195.498 142.738L195.726 142.65L195.918 142.72L199.537 146.061L203.156 142.72L203.576 142.738L203.558 143.158L199.747 146.691H199.345L195.516 143.158L195.498 142.738Z"
     fill="#0067B2"
     id="path44" />
  <path
     d="M215.693 176.9H216.812V174.294V173.927C216.873 173.742 216.99 173.58 217.146 173.464C217.303 173.349 217.491 173.284 217.686 173.279C218.298 173.279 218.525 173.769 218.525 174.399V176.9H219.644V174.276C219.644 172.877 218.857 172.37 218.07 172.37C217.79 172.362 217.512 172.429 217.266 172.564C217.02 172.699 216.815 172.898 216.672 173.139V173.139V172.475H215.693C215.693 172.86 215.693 173.279 215.693 173.787V176.9ZM211.759 174.224C211.766 173.948 211.876 173.684 212.067 173.484C212.257 173.284 212.515 173.161 212.79 173.139C212.924 173.143 213.057 173.175 213.178 173.233C213.299 173.291 213.407 173.374 213.494 173.476C213.581 173.578 213.646 173.698 213.685 173.826C213.723 173.955 213.734 174.091 213.717 174.224H211.759ZM214.731 174.994C214.745 174.837 214.745 174.678 214.731 174.521C214.763 174.252 214.738 173.978 214.657 173.719C214.575 173.46 214.441 173.221 214.261 173.018C214.081 172.815 213.86 172.652 213.612 172.54C213.365 172.428 213.097 172.37 212.825 172.37C212.523 172.374 212.226 172.439 211.951 172.563C211.675 172.687 211.428 172.866 211.225 173.089C211.022 173.312 210.867 173.574 210.769 173.86C210.671 174.145 210.633 174.448 210.657 174.749C210.635 175.053 210.68 175.358 210.788 175.643C210.897 175.928 211.066 176.186 211.284 176.399C211.502 176.613 211.763 176.776 212.051 176.877C212.338 176.979 212.644 177.017 212.947 176.988C213.472 176.999 213.995 176.91 214.486 176.725L214.329 175.956C213.935 176.092 213.521 176.157 213.105 176.148C212.934 176.165 212.762 176.146 212.599 176.093C212.436 176.039 212.286 175.951 212.159 175.836C212.032 175.72 211.931 175.58 211.862 175.422C211.793 175.265 211.758 175.095 211.759 174.924L214.731 174.994ZM205.762 176.9H206.898V174.259V173.909C206.954 173.726 207.068 173.566 207.222 173.453C207.377 173.339 207.563 173.278 207.755 173.279C208.367 173.279 208.611 173.769 208.611 174.416V176.9H209.73V174.294C209.73 172.877 208.944 172.37 208.192 172.37C207.923 172.365 207.657 172.431 207.423 172.562C207.201 172.689 207.01 172.862 206.863 173.069V170.446H205.727L205.762 176.9ZM204.782 175.938C204.506 176.056 204.208 176.116 203.908 176.113C203.528 176.113 203.163 175.962 202.894 175.693C202.626 175.424 202.474 175.059 202.474 174.679C202.474 174.298 202.626 173.934 202.894 173.665C203.163 173.396 203.528 173.244 203.908 173.244C204.198 173.232 204.487 173.292 204.747 173.419L204.957 172.58C204.614 172.438 204.245 172.367 203.873 172.37C203.552 172.345 203.229 172.388 202.926 172.497C202.623 172.605 202.346 172.776 202.113 172.999C201.88 173.222 201.697 173.492 201.576 173.79C201.454 174.089 201.397 174.409 201.408 174.731C201.387 175.035 201.432 175.339 201.539 175.623C201.646 175.908 201.813 176.166 202.028 176.38C202.244 176.594 202.503 176.759 202.788 176.864C203.074 176.969 203.378 177.011 203.681 176.988C204.112 177.002 204.541 176.925 204.94 176.76L204.782 175.938ZM200.464 172.44H199.345V175.116V175.466C199.274 175.637 199.156 175.784 199.004 175.89C198.852 175.995 198.673 176.054 198.488 176.061C197.894 176.061 197.649 175.588 197.649 174.854V172.475H196.53V175.081C196.53 176.515 197.264 177.005 198.086 177.005C198.369 177.013 198.649 176.946 198.897 176.811C199.146 176.676 199.355 176.477 199.502 176.236V176.236V176.9H200.481C200.481 176.533 200.481 176.096 200.481 175.571L200.464 172.44ZM192.299 174.311V174.032C192.349 173.803 192.475 173.598 192.656 173.449C192.836 173.3 193.061 173.216 193.295 173.209C194.03 173.209 194.414 173.839 194.414 174.626C194.414 175.413 193.977 176.078 193.278 176.078C193.051 176.075 192.831 175.998 192.651 175.86C192.472 175.721 192.342 175.527 192.281 175.309V174.311H192.299ZM192.089 176.865V176.201C192.234 176.445 192.442 176.645 192.691 176.781C192.94 176.916 193.222 176.982 193.505 176.97C193.798 176.956 194.085 176.881 194.348 176.75C194.611 176.619 194.844 176.436 195.033 176.211C195.222 175.986 195.362 175.724 195.445 175.443C195.528 175.161 195.552 174.865 195.516 174.574C195.516 173.227 194.746 172.335 193.662 172.335C193.386 172.318 193.11 172.374 192.861 172.496C192.613 172.619 192.401 172.805 192.246 173.035V173.035V170.411H191.127V175.658C191.127 176.113 191.127 176.603 191.127 176.9L192.089 176.865ZM184.081 176.865H185.218V174.294V173.927C185.279 173.742 185.396 173.58 185.552 173.464C185.709 173.349 185.897 173.284 186.092 173.279C186.704 173.279 186.949 173.769 186.949 174.399V176.9H188.068V174.276C188.068 172.877 187.263 172.37 186.494 172.37C186.211 172.362 185.931 172.429 185.683 172.564C185.434 172.7 185.225 172.898 185.078 173.139V172.475H184.099C184.099 172.86 184.099 173.279 184.099 173.787L184.081 176.865ZM182.333 170.586C182.25 170.581 182.168 170.593 182.09 170.622C182.013 170.651 181.942 170.695 181.883 170.753C181.824 170.81 181.777 170.88 181.746 170.956C181.715 171.033 181.701 171.115 181.703 171.198C181.7 171.323 181.734 171.446 181.801 171.552C181.868 171.658 181.965 171.742 182.079 171.792C182.194 171.842 182.321 171.857 182.444 171.835C182.568 171.813 182.681 171.754 182.771 171.667C182.861 171.579 182.923 171.467 182.948 171.345C182.974 171.222 182.963 171.095 182.916 170.979C182.869 170.862 182.788 170.763 182.684 170.693C182.58 170.623 182.458 170.586 182.333 170.586V170.586ZM182.892 172.44H181.773V176.865H182.892V172.44ZM174.045 176.865H175.147V174.241V173.874C175.2 173.699 175.306 173.545 175.45 173.433C175.594 173.32 175.769 173.254 175.951 173.244C176.476 173.244 176.72 173.682 176.72 174.294V176.865H177.804V174.241V173.874C177.855 173.707 177.956 173.561 178.094 173.454C178.232 173.347 178.4 173.286 178.574 173.279C179.116 173.279 179.378 173.717 179.378 174.451V176.9H180.462V174.294C180.462 172.877 179.728 172.37 178.976 172.37C178.658 172.357 178.344 172.449 178.084 172.632C177.864 172.776 177.678 172.967 177.542 173.192C177.448 172.945 177.28 172.733 177.061 172.586C176.842 172.439 176.582 172.363 176.318 172.37C176.053 172.38 175.796 172.459 175.572 172.6C175.348 172.742 175.165 172.94 175.042 173.174V172.527H174.08C174.08 172.912 174.08 173.332 174.08 173.839L174.045 176.865ZM170.811 176.865H171.93V174.609V174.259C171.967 174.023 172.089 173.808 172.272 173.654C172.455 173.5 172.687 173.416 172.926 173.419H173.258V172.352H172.996C172.721 172.363 172.457 172.461 172.241 172.63C172.024 172.8 171.866 173.033 171.79 173.297V173.297V172.457H170.811C170.811 172.86 170.811 173.279 170.811 173.874V176.865ZM166.912 174.189C166.911 173.913 167.016 173.647 167.204 173.446C167.392 173.244 167.651 173.122 167.926 173.104C168.061 173.105 168.194 173.136 168.317 173.193C168.44 173.25 168.548 173.332 168.636 173.435C168.724 173.538 168.789 173.659 168.826 173.789C168.864 173.919 168.872 174.055 168.852 174.189H166.912ZM169.797 174.924C169.81 174.767 169.81 174.609 169.797 174.451C169.84 173.943 169.681 173.439 169.353 173.049C169.025 172.658 168.556 172.414 168.048 172.37C167.746 172.374 167.449 172.439 167.174 172.563C166.898 172.687 166.651 172.866 166.448 173.089C166.245 173.312 166.09 173.574 165.992 173.86C165.894 174.145 165.856 174.448 165.88 174.749C165.858 175.053 165.903 175.358 166.011 175.643C166.12 175.928 166.289 176.186 166.507 176.399C166.725 176.613 166.986 176.776 167.274 176.877C167.561 176.979 167.867 177.017 168.171 176.988C168.696 177.001 169.218 176.912 169.709 176.725L169.552 175.956C169.159 176.092 168.744 176.157 168.328 176.148C167.611 176.148 166.982 175.798 166.964 174.994L169.797 174.924ZM163.188 176.83H164.307V171.583H166.055V170.638H161.422V171.583H163.17L163.188 176.83Z"
     fill="white"
     id="path46" />
  <path
     d="M320 133.016C320 142.987 317.044 152.735 311.507 161.025C305.969 169.316 298.098 175.778 288.89 179.593C279.681 183.408 269.549 184.405 259.774 182.459C249.999 180.512 241.02 175.709 233.974 168.657C226.927 161.605 222.13 152.62 220.187 142.84C218.245 133.06 219.245 122.923 223.062 113.711C226.878 104.5 233.34 96.6275 241.628 91.0902C249.917 85.5528 259.661 82.5991 269.628 82.6025C276.245 82.6025 282.796 83.9066 288.909 86.4403C295.021 88.9741 300.575 92.6877 305.253 97.3692C309.93 102.051 313.64 107.608 316.171 113.725C318.701 119.841 320.002 126.396 320 133.016"
     fill="#F2F2F2"
     id="path48" />
  <path
     d="M244.521 176.659C246.25 177.683 248.043 178.594 249.888 179.388L254.225 177.918L256.55 158.677C263.544 153.499 267.04 150.257 267.04 148.951V148.689L266.866 148.479C265.117 147.219 263.211 149.598 261.848 148.934C260.764 148.409 260.834 145.435 261.183 142.322L260.501 136.986C260.015 137.152 259.577 137.434 259.225 137.808C256.106 142.524 253.647 147.644 251.917 153.027L244.521 176.659Z"
     fill="#F2CFB0"
     id="path50" />
  <path
     d="M270.223 132.036L262.897 128.188C262.499 127.996 262.045 127.962 261.623 128.091C261.201 128.221 260.845 128.505 260.624 128.887L251.06 147.044C250.863 147.444 250.826 147.903 250.956 148.329C251.086 148.754 251.373 149.115 251.759 149.336L259.068 153.184C259.467 153.381 259.926 153.418 260.351 153.288C260.777 153.158 261.137 152.871 261.358 152.484L270.922 134.327C271.119 133.928 271.156 133.469 271.026 133.043C270.896 132.617 270.609 132.257 270.223 132.036"
     fill="#6E6E70"
     id="path52" />
  <path
     d="M260.886 152.24L270.415 134.1C270.557 133.831 270.588 133.516 270.499 133.224C270.411 132.933 270.211 132.688 269.943 132.543L269.034 132.071H268.806C268.766 132.152 268.709 132.224 268.64 132.283C268.571 132.341 268.49 132.385 268.403 132.411C268.317 132.437 268.225 132.446 268.135 132.435C268.045 132.425 267.958 132.396 267.88 132.351L263.876 130.252C263.795 130.211 263.722 130.155 263.664 130.085C263.605 130.016 263.562 129.936 263.536 129.849C263.509 129.762 263.501 129.671 263.512 129.58C263.522 129.49 263.551 129.403 263.596 129.325V129.115L262.687 128.625C262.416 128.484 262.099 128.456 261.807 128.548C261.516 128.639 261.272 128.843 261.131 129.115L251.549 147.272C251.407 147.546 251.379 147.865 251.471 148.16C251.562 148.454 251.767 148.701 252.039 148.846L259.365 152.694C259.634 152.837 259.949 152.868 260.24 152.779C260.532 152.691 260.776 152.49 260.921 152.222"
     fill="white"
     id="path54" />
  <path
     d="M268.492 164.03L268.194 144.596C264.313 147.849 260.291 149.843 258.228 149.563C252.983 149.074 249.749 130.969 252.476 123.202C255.204 115.436 274.436 109.208 277.671 123.202C278.602 127.94 277.615 132.854 274.926 136.864L284.402 161.528L268.492 164.03Z"
     fill="#F2CFB0"
     id="path56" />
  <path
     d="M251.007 121.401C250.889 121.567 250.811 121.759 250.78 121.96C250.736 122.156 250.736 122.359 250.78 122.555C250.953 122.855 251.178 123.122 251.445 123.342C252.05 123.788 252.75 124.088 253.49 124.217C256.235 124.899 259.138 124.602 261.83 125.459C263.037 125.914 264.137 126.615 265.058 127.519C265.979 128.422 266.702 129.508 267.18 130.707C268.684 129.552 270.677 128.275 272.583 128.817C273.34 129.151 273.977 129.709 274.408 130.416C274.84 131.123 275.045 131.944 274.996 132.771C275.075 134.273 274.567 135.747 273.579 136.881C273.382 137.078 273.206 137.295 273.055 137.529C272.95 137.721 273.055 137.826 273.177 138.001C273.581 138.484 274.045 138.913 274.559 139.278C275.212 139.702 275.966 139.943 276.744 139.978C277.517 140.02 278.287 139.863 278.982 139.523C279.722 139.227 280.435 138.87 281.115 138.456C281.832 138.058 282.511 137.596 283.143 137.074C283.801 136.499 284.337 135.797 284.717 135.01C285.091 134.22 285.305 133.364 285.346 132.491C285.435 130.5 285.223 128.506 284.717 126.578C284.248 124.573 283.531 122.634 282.584 120.806C281.716 119.098 280.529 117.572 279.087 116.31C280.948 115.601 282.547 114.337 283.668 112.689C284.965 110.107 285.63 107.253 285.609 104.363C285.489 102.947 285.079 101.572 284.402 100.322C283.954 99.6187 283.357 99.0216 282.654 98.5731C281.975 98.1135 281.206 97.8035 280.398 97.6635C280.241 97.6635 280.084 97.6635 279.909 97.6635C279.734 97.6635 279.716 97.5411 279.612 97.3837C279.383 97.016 279.094 96.6906 278.755 96.4216C278.002 95.8299 277.112 95.4388 276.167 95.2846C275.221 95.1094 274.248 95.1452 273.317 95.3895C272.43 95.6092 271.624 96.0763 270.992 96.7364C270.765 97.0163 270.607 97.2787 270.223 97.2437C269.838 97.2087 269.471 97.0863 269.086 97.0688C268.205 97.0167 267.322 97.1539 266.498 97.4711C265.684 97.7966 264.972 98.3341 264.435 99.0279C263.948 99.7593 263.593 100.57 263.386 101.424C262.741 103.198 262.386 105.065 262.337 106.952C262.42 108.961 263.022 110.914 264.086 112.62C261.825 112.841 259.616 113.432 257.547 114.369C254.847 116.149 252.611 118.547 251.025 121.366"
     fill="#1A1747"
     id="path58" />
  <path
     d="M268.264 153.342C261.603 159.989 258.98 172.234 256.462 181.749C260.754 182.913 265.181 183.501 269.628 183.499C271.149 183.499 272.653 183.499 274.156 183.289C275.078 173.908 274.996 164.455 273.912 155.091L268.264 153.342Z"
     fill="#A70034"
     id="path60" />
  <path
     d="M280.905 151.103L268.527 153.044C258.421 176.571 262.617 167.388 257.599 181.942C269.678 184.926 282.434 183.331 293.407 177.464C290.183 168.259 285.992 159.423 280.905 151.103"
     fill="white"
     id="path62" />
  <path
     d="M281.675 151.103H276.779C276.779 151.103 272.356 166.181 269.086 183.394H269.628C282.496 183.405 294.877 178.471 304.212 169.61C297.592 162.421 290.008 156.187 281.675 151.085"
     fill="#E61657"
     id="path64" />
  <path
     d="M243.244 175.889C247.467 178.491 252.051 180.454 256.847 181.714L258.106 177.411C256.9 173.738 256.882 162.595 256.882 162.595L249.311 158.729C246.982 164.276 245.031 169.974 243.472 175.784L243.244 175.889Z"
     fill="#A70034"
     id="path66" />
</svg>
