<svg xmlns="http://www.w3.org/2000/svg" width="498.287" height="400.912" viewBox="0 0 498.287 400.912">
  <g id="Gruppe_15" data-name="Gruppe 15" transform="translate(2602.305 339.919)">
    <path id="Pfad_227" data-name="Pfad 227" d="M-1778,1236.444c.108.291.216.581.322.874a115.15,115.15,0,0,1,6.813,39.558,54,54,0,0,0,16.373,9.089c14.856,5.148,27.666,2.525,43.425.33,21.278-2.964,39.777-5.54,56.254-8.466q2.237-20.184,5.229-41.386Z" transform="translate(-642.116 -1227.954)" fill="#fff"/>
    <path id="Pfad_228" data-name="Pfad 228" d="M-2310.431,1240.4a163.116,163.116,0,0,0,24.137,12.135q.732-5.914,1.807-12.135Z" transform="translate(-227.364 -1231.035)" fill="#fff"/>
    <path id="Pfad_229" data-name="Pfad 229" d="M-1930.674-.853V-118.138q-5.13.574-10.042,1.141v113.3A43.251,43.251,0,0,1-1930.674-.853Z" transform="translate(-515.364 -172.763)" fill="#fff"/>
    <path id="Pfad_230" data-name="Pfad 230" d="M-917.74-329.682c-25.667-20.151-47.5-7.167-121.112,9.869h94.693v287.3c9.562-14.964,16.535-30.353,22.868-45.822C-894.678-143.336-859.4-283.875-917.74-329.682Z" transform="translate(-1217.897)" fill="#fff"/>
    <path id="Pfad_231" data-name="Pfad 231" d="M-2510.521,179.106a250.154,250.154,0,0,1,12.72-42.614q-.61-.19-1.223-.414c-8.035-2.952-12.236-9.013-16.265-15-10.94-16.26-11.809-33.5-12.292-46.152-.352-9.205-.669-20.126,3.712-33.479,2.3-7.01,5.375-16.381,13.7-25.1C-2493.1-1.551-2469.259-.662-2464.912-.5a69.061,69.061,0,0,1,8.832.827v-113.3c-62.2,7.2-98.456,14.34-111.743,44.166-4.717,10.587-5.194,18.451-6.157,32.864q.209-.01.422-.011h5.152a3.621,3.621,0,0,1-.292-1.411c0-3.914,6.591-7.087,14.721-7.087q.446,0,.886.013c2.058-2.719,7.476-4.66,13.834-4.66,8.13,0,14.721,3.173,14.721,7.087a3.511,3.511,0,0,1-.083.756c3.412,1.028,5.879,3.009,6.419,5.359a8.584,8.584,0,0,1,7.6,8.527h0a3.34,3.34,0,0,1-3.34,3.34h-60.908c-1.589,19.453-5.059,49.005-16.2,100.02a166.46,166.46,0,0,1-5.051,18.4c-4.748,13.934-5.632,21.35-6.02,24.187-3.243,23.733,35.831,49.224,51.622,59.525,3.875,2.528,8.093,5.279,12.7,8.047h25.944Q-2511.246,182.671-2510.521,179.106Z" transform="translate(0 -176.785)" fill="#fff"/>
    <path id="Pfad_232" data-name="Pfad 232" d="M-1766.946,831.639a9.722,9.722,0,0,1-3.039-3.865,10.161,10.161,0,0,1-.289-6.643c0-.06.006-.118.009-.177a45.136,45.136,0,0,1-8.2,7.171c1.263.524,2.595,1.037,4,1.528A45.57,45.57,0,0,0-1766.946,831.639Z" transform="translate(-641.752 -904.296)" fill="#cbd8e6"/>
    <path id="Pfad_233" data-name="Pfad 233" d="M-1735.83,959.108c-21.078,3.326-73.888-3.71-88.839-28.66l-.2-.056.009-.016c-1.187-.293-2.5-.587-3.924-.859-2.393-.458-4.167-.678-4.787-.758-18.884-2.44-34.574-12.916-34.965-14.058a5.678,5.678,0,0,1-.153-.549,5.178,5.178,0,0,1-.1-1.416,3.114,3.114,0,0,1,.319-1.285,2.972,2.972,0,0,1,1.1-1.16,10.677,10.677,0,0,1-2.489-1.111,5.562,5.562,0,0,1-2.491-2.306,3.882,3.882,0,0,1-.157-2.725,4,4,0,0,1,.9-1.581c-.194-.107-.5-.277-.87-.486q-.889-.5-1.675-.956c-1.4,3.454-4.626,6.6-7.915,9.167l-9.343,27.931q3.817,2.911,7.5,5.812a115,115,0,0,1,17.563,31.2h128.416q.938-6.6,1.956-13.3l-.13.032Q-1735.966,960.539-1735.83,959.108Z" transform="translate(-553.772 -966.749)" fill="#fff"/>
    <path id="Pfad_234" data-name="Pfad 234" d="M-1782.044,885.693a10.335,10.335,0,0,0-1.033-.385A6.194,6.194,0,0,0-1782.044,885.693Z" transform="translate(-638.161 -954.427)" fill="#cbd8e6"/>
    <path id="Pfad_235" data-name="Pfad 235" d="M-1518.937,580.646h0Z" transform="translate(-843.92 -717.102)" fill="#cbd8e6"/>
    <path id="Pfad_236" data-name="Pfad 236" d="M-1741.586,625.819a15.807,15.807,0,0,0,3.61,5.343c5.058,4.844,9.778,3.175,16.753,7.8a24.331,24.331,0,0,1,6.194,5.763c3.137,1.734,4.607,3.438,8.917,4.343,0-.092,0-.184,0-.275-.019-.914-.073-1.775-.167-2.568a.482.482,0,0,1,.087-.04c-.005-.072-.011-.145-.017-.216a19.146,19.146,0,0,1,5.221-.728,52.682,52.682,0,0,1,5.92.487,43.053,43.053,0,0,1,13.025,3.533c3.968,1.606,16,3.522,46.965,5.513-5.548-5.974-11.781-12.733-19.53-19.809-3.037-1.935-12.168-13.648-12.016-22.831.581-.459,1.2-.973,1.841-1.542-4.127-4.029-7.635-7.01-10.1-9a40.743,40.743,0,0,1-3.791-3.184,26.024,26.024,0,0,1-6.568-10.76c-.1-.356-.351-1.754-.846-4.548-.669-3.781-1.108-6.266-1.468-8.605-.373.243-.779.51-1.228.807-3.385,2.239-4.2,2.924-5.3,2.6a10.28,10.28,0,0,1-2.722-2.017c-2.937,1.957-3.786,1.671-4.12,1.5a3.043,3.043,0,0,1-1.19-2.758l-9.061,4.549a3.957,3.957,0,0,1-2.742.4l-33.2,17.277a4.867,4.867,0,0,0,.152,2.526,7.044,7.044,0,0,0,1.619,2.558s3.715,4.4,5.523,12.745c.687,3.169-.755,7.075-3.423,10.909A3.246,3.246,0,0,1-1741.586,625.819Z" transform="translate(-666.107 -712.305)" fill="#fff"/>
    <path id="Pfad_237" data-name="Pfad 237" d="M-1705.992-248.947c-27.657,6.4-62.624,13.375-107.849,19.378-30.7,4.075-57.8,6.887-81.439,9.533V-102.75a24.438,24.438,0,0,1,10.417,8.019,23.679,23.679,0,0,1,4.176,13.453l-2.405.612c6.728,8.808,4.822,13.006,12.008,18.657,7.943,6.248,10.688,6.921,11.172,10a5.321,5.321,0,0,1-.613,3.209l29.659-15.436a3.737,3.737,0,0,1,2.034-2.484l14.519-7.865c.115-.633.189-.984.26-1.25a.9.9,0,0,1-.329-.109c-.7-.4-.786-1.472-.815-1.846-.08-1.035.269-1.936,1.97-4.722.9-1.48,1.351-2.223,1.585-2.5,1.1-1.317,2.3-2.081,5.873-3.755,4.117-1.928,6.208-2.891,7.807-2.852a13.407,13.407,0,0,1,4.778,1.247,24.892,24.892,0,0,1,5.476,2.957l-.016.022q.528.339,1.063.7c1.446.974,2.777,1.961,4,2.937a92.568,92.568,0,0,1,5.271,11.81c.61,1.678,1.055,3.058,1.445,4.312.519,1.568,1,3.1,1.455,4.561.319.905.685,1.86,1.143,2.937a54.346,54.346,0,0,0,4.949,9.1c.242.227.477.444.7.645q.16-.539.293-1.035A120.154,120.154,0,0,1-1744.6-39.743a120.293,120.293,0,0,1,21.834,18.4q2.529-11.515,5.178-22.655l-3.162,2.756,5.632-24.18,20.392-22.056-6.916-32.226-.4.823.024.031-.078.082h0a43.9,43.9,0,0,1-3.461,3.2,44.578,44.578,0,0,1-6.4,4.583,44.56,44.56,0,0,1-5.431,2.724l-.016.007-.281.117a40.42,40.42,0,0,1-4.659,1.62l-.012,0h0c-6.423,6.544-14.555,8.7-22.944,10.918-5.676,1.5-16.522,4.242-30.076,1.365a59.244,59.244,0,0,1-15.955-5.9s7.6-46.719,14.084-84.152l-.288-.027q.209-1.187.409-2.386,1.054-6.313,1.794-12.406c1.681-.154,3.716-.295,6.038-.357a27.565,27.565,0,0,1-1.283-8.714c.214-9.863,7.242-18.862,15.453-23.011,4.541-2.294,9.638-2.492,19.834-2.888,9.975-.387,14.963-.581,20.219,1.926,7.393,3.526,6.379,7.7,13.571,10.4,6.976,2.618,9.39-.761,16.661,2.118,1.839.728,8.64,3.421,11.482,9.722,2.938,6.513-1.17,10.635,2.419,15.523,2.744,3.737,6.1,2.63,8.3,6.7,1.287,2.384,1.1,4.934.717,10.032-.441,5.923-1.44,7.545-1.775,9.7l.285.126c.014.919.058,1.888.142,2.9.126,1.534.324,2.958.562,4.259h0c.781,2.212,1.612,3.892,1.209,6.976a15.128,15.128,0,0,1-2.019,5.7c-3.506,6.124-10.61,8.315-14.543,9.151l7.9,24.787.956-1.034,22.5,29.315-5.37,1.591a224.135,224.135,0,0,1,15.662,29.752c10.527,24.278,13.92,44.16,18.323,74.013q1.661,11.262,3.419,23.869,1.742-2.545,3.379-5.106v-287.3Zm-103.115,64.272a4.95,4.95,0,0,1-4.95,4.95h-71.4a4.95,4.95,0,0,1-4.95-4.95h0a12.722,12.722,0,0,1,12.722-12.722h2.887a6.8,6.8,0,0,1-.332-2.091c0-5.8,7.49-10.5,16.728-10.5.338,0,.674.007,1.007.019,2.339-4.029,8.495-6.906,15.721-6.906,9.239,0,16.728,4.7,16.728,10.5a6.7,6.7,0,0,1-.095,1.118c4.1,1.611,7.007,4.809,7.382,8.559a12.727,12.727,0,0,1,8.553,12.022Z" transform="translate(-550.758 -70.865)" fill="#fff"/>
    <path id="Pfad_238" data-name="Pfad 238" d="M-1519.087,556.784h0l-.042.028a10.278,10.278,0,0,0,2.722,2.017c1.092.324,1.91-.36,5.3-2.6.449-.3.856-.563,1.228-.807-.165-1.073-.312-2.115-.458-3.237-.083-.641-.173-1.368-.265-2.172-1.049.7-2.528,2.145-5.348,4.429C-1517.2,555.451-1518.231,556.212-1519.087,556.784Z" transform="translate(-843.771 -693.24)" fill="#6484bd"/>
    <path id="Pfad_239" data-name="Pfad 239" d="M-1320.535,647.107c-.221-.2-.456-.418-.7-.645q.325.482.621.9C-1320.586,647.278-1320.56,647.192-1320.535,647.107Z" transform="translate(-997.929 -768.371)" fill="#6484bd"/>
    <path id="Pfad_240" data-name="Pfad 240" d="M-1541.975,553.637c.334.168,1.184.454,4.12-1.5l.042-.028h0c.856-.573,1.886-1.333,3.131-2.341,2.821-2.284,4.3-3.732,5.348-4.429-.048-.421-.1-.864-.146-1.327l-13.687,6.871A3.043,3.043,0,0,0-1541.975,553.637Z" transform="translate(-825.046 -688.561)" fill="#6484bd"/>
    <path id="Pfad_241" data-name="Pfad 241" d="M-1355.381,571.365c.5,1.612.91,3.014,1.455,4.561C-1354.382,574.469-1354.863,572.933-1355.381,571.365Z" transform="translate(-971.328 -709.872)" fill="#6484bd"/>
    <path id="Pfad_242" data-name="Pfad 242" d="M-1445.967,508.359l-4.406,2.212c.484,1.6,1.041,3.374,1.678,5.287,1.756,5.278,2.381,6.421,3.5,6.693,2.243.546,5.634-2.589,5.767-5.559.047-1.05-.331-1.912-1.087-3.637a23.612,23.612,0,0,0-2.407-4.044c-.868-1.281-1.644-2.419-2.306-3.386l-.009.012c-.113-.123-.262-.281-.442-.458l.388.719A1.578,1.578,0,0,1-1445.967,508.359Z" transform="translate(-897.331 -658.548)" fill="#6484bd"/>
    <path id="Pfad_243" data-name="Pfad 243" d="M-1516.845,495.167a3.415,3.415,0,0,1,2.643.027l3.717-2.014a6.456,6.456,0,0,0-2.552-.413,12.706,12.706,0,0,0-4.542,1.437,16.7,16.7,0,0,0-3.017,1.733c-2.667,1.955-2.764,3.4-5.456,5.071a4.257,4.257,0,0,1-2.643.928c-.072.266-.146.617-.261,1.25l10.081-5.461A3.459,3.459,0,0,1-1516.845,495.167Z" transform="translate(-836.117 -648.64)" fill="#6484bd"/>
    <path id="Pfad_244" data-name="Pfad 244" d="M-1368.915,646.809a33.266,33.266,0,0,1-4.321,10.617,33.268,33.268,0,0,1-7.891,8.687l-.091-.086c-.637.575-1.25,1.094-1.827,1.559-.068,9.184,9.17,20.813,12.224,22.72,7.813,7,14.109,13.707,19.711,19.629q3.92.216,8.25.43c8.262-11.864,10.428-15.065,16.636-23.4q1.21-6.026,2.455-11.955a120.3,120.3,0,0,0-22-18.2,120.148,120.148,0,0,0-22.92-11.48q-.129.5-.283,1.037l-.074.257Z" transform="translate(-949.778 -767.488)" fill="#aae0f5"/>
    <path id="Pfad_245" data-name="Pfad 245" d="M-1026.862,210.352a2.793,2.793,0,0,1-.414-.137c.467,7.362-.148,11.247-.76,13.477l6.17-7.665a15.238,15.238,0,0,1-2.092-1.525A10.646,10.646,0,0,1-1026.862,210.352Z" transform="translate(-1226.322 -428.543)" fill="#c38851"/>
    <path id="Pfad_246" data-name="Pfad 246" d="M-995.586,247.686c-.915.195-1.659.316-2.145.4-.393.065-.815.142-1.4.212a25.47,25.47,0,0,1-10.53-1.057l-9.5,19.576,6.916,32.226,24.561-26.566Z" transform="translate(-1233.235 -457.383)" fill="#f5a58e"/>
    <path id="Pfad_247" data-name="Pfad 247" d="M-1110.895,526.317a224.137,224.137,0,0,0-15.662-29.753l-41.954,12.427-5.153,11.711-18.4,16.037q-2.646,11.139-5.178,22.655-1.3,5.917-2.564,11.932c3.551-4.679,8.408-10.987,16.424-21.4,12.759-16.575,15.566-20.291,21.732-21.668a22.582,22.582,0,0,1,16.138,2.41,19.826,19.826,0,0,1,2.684.243c5.41.888,12.18,9.98,14.568,17.753,7.584,24.693-23.125,55.409-37.811,70.1-10.5,10.5-21.441,18.612-35.12,24.074a94.4,94.4,0,0,1-12.273,3.952q-1.018,6.7-1.956,13.3-3.008,21.19-5.229,41.386c42.016-7.459,70.884-17.185,99.171-41.378a182.256,182.256,0,0,0,32.324-35.9q-1.751-12.6-3.419-23.869C-1096.975,570.477-1100.367,550.594-1110.895,526.317Z" transform="translate(-1076.282 -651.603)" fill="#afe2f6"/>
    <path id="Pfad_248" data-name="Pfad 248" d="M-1529.2,477.7c2.692-1.669,2.789-3.116,5.456-5.071a16.7,16.7,0,0,1,3.017-1.733,12.706,12.706,0,0,1,4.542-1.437,6.456,6.456,0,0,1,2.552.413l.394-.213a1.578,1.578,0,0,1,2.14.638l1.062,1.967c.179.177.328.335.442.458l.009-.012c-.363-.53-.692-1.009-.981-1.429l4.212-4.744q.417.259.84.532l.016-.022a24.888,24.888,0,0,0-5.475-2.957,13.407,13.407,0,0,0-4.778-1.247c-1.6-.039-3.69.924-7.807,2.852-3.574,1.674-4.774,2.438-5.873,3.755-.233.28-.681,1.023-1.584,2.5-1.7,2.786-2.05,3.687-1.97,4.722.029.374.112,1.443.815,1.846a.9.9,0,0,0,.329.109A4.256,4.256,0,0,0-1529.2,477.7Z" transform="translate(-832.966 -625.334)" fill="#27aed8"/>
    <path id="Pfad_249" data-name="Pfad 249" d="M-1078.9,400.067l41.954-12.427,5.371-1.591-22.5-29.315-.956,1.034-24.561,26.566-20.392,22.056-5.632,24.18,3.162-2.756,18.4-16.037Z" transform="translate(-1165.889 -542.678)" fill="#c3e9f8"/>
    <path id="Pfad_250" data-name="Pfad 250" d="M-1713.554,589.131a2.151,2.151,0,0,1-1.434-1.06,2.024,2.024,0,0,1-.177-1.313l-29.659,15.436a18.854,18.854,0,0,0-1.926,4.214Z" transform="translate(-666.46 -721.862)" fill="#e2e2e2"/>
    <path id="Pfad_251" data-name="Pfad 251" d="M-1742.538,815.786a9.722,9.722,0,0,0,3.039,3.865q.987.166,1.92.271c1,.115,1.846.168,2.42.2.321.015.573.023.673.026h.039a73.932,73.932,0,0,1,16.963,2.326,26.456,26.456,0,0,1,5.548,2.256,24.33,24.33,0,0,0-6.194-5.763c-6.974-4.624-11.7-2.955-16.753-7.8a15.808,15.808,0,0,1-3.61-5.343,3.247,3.247,0,0,0-1.646-.231,35.947,35.947,0,0,1-2.678,3.375c0,.059-.008.118-.009.177A10.161,10.161,0,0,0-1742.538,815.786Z" transform="translate(-669.199 -892.308)" fill="#27aed8"/>
    <path id="Pfad_252" data-name="Pfad 252" d="M-1460.9,496.186c.354,1.284.79,2.81,1.311,4.533l4.406-2.212a1.579,1.579,0,0,0,.681-2.161l-.388-.719-1.062-1.967a1.578,1.578,0,0,0-2.14-.638l-.394.213-3.717,2.013A3.63,3.63,0,0,1-1460.9,496.186Z" transform="translate(-888.115 -648.696)" fill="#fff"/>
    <path id="Pfad_253" data-name="Pfad 253" d="M-1603.8,532.347a2.151,2.151,0,0,0,1.434,1.06,3.957,3.957,0,0,0,2.742-.4l9.061-4.549,13.687-6.871c-.151-1.429-.3-3.051-.435-4.839a3.626,3.626,0,0,1-.032-1.523l-10.081,5.461-14.519,7.865a3.737,3.737,0,0,0-2.034,2.484A2.024,2.024,0,0,0-1603.8,532.347Z" transform="translate(-777.644 -666.138)" fill="#e2e2e2"/>
    <path id="Pfad_254" data-name="Pfad 254" d="M-1964.282,515.9c-4.6.555-10.559,2.126-14.281,6.786-8.557,10.715.347,31.6,9.862,46.567a41.78,41.78,0,0,0,7.109,8.471l5.107,2.82a1.724,1.724,0,0,1,.568-.867c2.22-1.751,7.922,3.567,18.891,8.114a45.144,45.144,0,0,0,8.2-7.171,35.951,35.951,0,0,0,2.678-3.375c2.668-3.834,4.11-7.739,3.423-10.909-1.808-8.344-5.523-12.745-5.523-12.745a7.044,7.044,0,0,1-1.619-2.558,4.867,4.867,0,0,1-.152-2.526,18.849,18.849,0,0,1,1.926-4.214,5.321,5.321,0,0,0,.613-3.209c-.484-3.076-3.229-3.749-11.172-10-7.185-5.651-5.279-9.849-12.008-18.657Z" transform="translate(-483.193 -663.964)" fill="#fdc2b1"/>
    <path id="Pfad_255" data-name="Pfad 255" d="M-1963.357,947.029a51.389,51.389,0,0,1-24.258,8q11.107,7.732,21.263,15.5l9.343-27.931C-1959.294,944.384-1961.608,945.891-1963.357,947.029Z" transform="translate(-478.831 -999.056)" fill="#f5a58e"/>
    <path id="Pfad_256" data-name="Pfad 256" d="M-1884.506,810.669l-5.107-2.82a52.9,52.9,0,0,0,4.973,4A3.7,3.7,0,0,1-1884.506,810.669Z" transform="translate(-555.172 -894.088)" fill="#c38851"/>
    <path id="Pfad_257" data-name="Pfad 257" d="M-2107.682,1051.365a115,115,0,0,0-17.563-31.2q-3.684-2.9-7.5-5.812-10.159-7.746-21.263-15.5a57.584,57.584,0,0,1-5.858.139c-2.7,1.5-13.745,7.254-25.5,3.591a250.2,250.2,0,0,0-12.72,42.614q-.726,3.565-1.33,7.043-1.082,6.216-1.807,12.135,3.9,1.543,8.074,2.894c-.221-16.4,1.295-28.922,4.2-36.046,1.379-3.378,4.321-10.53,11.574-14.736,1.274-.739,6.452-3.74,12.053-2.853a15.559,15.559,0,0,1,8.418,4.58,20.16,20.16,0,0,1,6.49,3.541,21.426,21.426,0,0,1,6.231,9.205c4.626,11.953,4.176,24.468,2.885,42.033a49.1,49.1,0,0,1,17.516,3.825c11.2,4.483,16.786,9.97,23.232,14.98a115.161,115.161,0,0,0-6.812-39.558C-2107.466,1051.946-2107.574,1051.656-2107.682,1051.365Z" transform="translate(-312.435 -1042.876)" fill="#005480"/>
    <path id="Pfad_258" data-name="Pfad 258" d="M-2202.207,395.712c-4.347-.162-28.189-1.052-45.261,16.843-8.32,8.721-11.4,18.092-13.7,25.1-4.382,13.353-4.064,24.274-3.713,33.479.483,12.653,1.352,29.892,12.292,46.152,4.029,5.988,8.23,12.05,16.265,15q.613.225,1.223.414c11.752,3.663,22.8-2.093,25.5-3.591a57.547,57.547,0,0,0,5.858-.139,51.388,51.388,0,0,0,24.257-8c1.749-1.138,4.063-2.644,6.348-4.429,3.289-2.568,6.517-5.712,7.915-9.167-7.7-4.463-8.378-5.891-8.616-6.674-.365-1.2-.381-3.069.608-3.655a1.2,1.2,0,0,1,.279-.12c-2.358-1.7-3.972-3.575-4.128-5.642-.011-.15-.024-.329-.03-.522a52.969,52.969,0,0,1-4.973-4,41.782,41.782,0,0,1-7.109-8.471c-9.515-14.964-18.419-35.852-9.862-46.567,3.722-4.66,9.682-6.232,14.281-6.786l13.626-3.469,2.4-.612a23.679,23.679,0,0,0-4.176-13.453,24.439,24.439,0,0,0-10.417-8.019,43.251,43.251,0,0,0-10.042-2.842A69.06,69.06,0,0,0-2202.207,395.712Z" transform="translate(-262.706 -572.997)"/>
    <path id="Pfad_259" data-name="Pfad 259" d="M-1561.861,901.473c.01-.928-.016-1.8-.08-2.609a.482.482,0,0,0-.087.04C-1561.934,899.7-1561.879,900.559-1561.861,901.473Z" transform="translate(-810.354 -964.987)" fill="#eff0f0"/>
    <path id="Pfad_260" data-name="Pfad 260" d="M-1590.365,1033.485l.2.056-.016-.028-.178-.044Z" transform="translate(-788.28 -1069.841)" fill="#eff0f0"/>
    <path id="Pfad_261" data-name="Pfad 261" d="M-1109.988,665.513c8.873,36.883-55.325,93.731-73.941,97.629a30.172,30.172,0,0,1-4.522,1.027q-.136,1.431-.272,2.862l.13-.032a94.4,94.4,0,0,0,12.273-3.952c13.68-5.463,24.621-13.572,35.12-24.074,14.686-14.69,45.395-45.406,37.811-70.1-2.387-7.773-9.157-16.865-14.568-17.753a19.836,19.836,0,0,0-2.684-.243A22.71,22.71,0,0,1-1109.988,665.513Z" transform="translate(-1101.15 -771.809)" fill="#c3e9f8"/>
    <path id="Pfad_262" data-name="Pfad 262" d="M-1987.965,1099.195a21.428,21.428,0,0,0-6.231-9.205,20.162,20.162,0,0,0-6.49-3.541c5.3,5.214,8.245,13.209,9.223,15.864,4.034,10.953,2.887,18.892,1.123,38.906,1.789-.039,3.523-.051,5.26.01C-1983.79,1123.663-1983.339,1111.148-1987.965,1099.195Z" transform="translate(-468.649 -1111.111)" fill="#073549"/>
    <path id="Pfad_263" data-name="Pfad 263" d="M-2119.3,1085.6c-.978-2.655-3.923-10.649-9.223-15.864a15.559,15.559,0,0,0-8.418-4.58c-5.6-.887-10.779,2.115-12.053,2.853-7.253,4.206-10.2,11.357-11.574,14.736-2.909,7.124-4.424,19.641-4.2,36.046a123.43,123.43,0,0,0,23.362,5.1c10.122,1.2,17.018.748,23.233.614C-2116.409,1104.489-2115.262,1096.55-2119.3,1085.6Z" transform="translate(-340.816 -1094.396)" fill="#005480"/>
    <path id="Pfad_264" data-name="Pfad 264" d="M-1030.055,152.543c-.02-1.93,0-3.886-.146-5.795l-.431.283C-1030.48,148.4-1030.293,150.195-1030.055,152.543Z" transform="translate(-1224.301 -379.104)" fill="#c38851"/>
    <path id="Pfad_265" data-name="Pfad 265" d="M-1032.582,132.185a19.114,19.114,0,0,0-.406-2.2h0l-.527-.236a10.612,10.612,0,0,1,.474,2.633Z" transform="translate(-1222.055 -365.863)" fill="#c38851"/>
    <path id="Pfad_266" data-name="Pfad 266" d="M-1029.285,140.834q.066.65.133,1.3Q-1029.2,141.479-1029.285,140.834Z" transform="translate(-1225.35 -374.497)" fill="#c38851"/>
    <path id="Pfad_267" data-name="Pfad 267" d="M-1024.968,204.99a2.8,2.8,0,0,0,.414.137,13.277,13.277,0,0,1-.52-1.62Q-1025.013,204.271-1024.968,204.99Z" transform="translate(-1228.631 -423.318)" fill="#c38851"/>
    <path id="Pfad_268" data-name="Pfad 268" d="M-1852.686,835.585a4,4,0,0,0-.9,1.581,3.88,3.88,0,0,0,.157,2.724,5.561,5.561,0,0,0,2.491,2.306,10.677,10.677,0,0,0,2.489,1.111,2.972,2.972,0,0,0-1.1,1.16,3.113,3.113,0,0,0-.319,1.285,5.188,5.188,0,0,0,.1,1.416,5.682,5.682,0,0,0,.153.549c.391,1.143,16.082,11.618,34.966,14.058.62.08,2.394.3,4.786.758,1.425.273,2.738.566,3.924.859l.178.044c-.081-.136-.163-.271-.242-.408,3.548-6.306,6.336-18.356,6.481-26.5-4.31-.9-5.78-2.61-8.917-4.343a26.461,26.461,0,0,0-5.548-2.256,73.937,73.937,0,0,0-16.963-2.326h-.039c-.1,0-.352-.011-.673-.026-.573-.027-1.416-.081-2.42-.2q-.933-.106-1.92-.271a45.562,45.562,0,0,1-7.521-1.987c-1.406-.491-2.737-1-4-1.528-10.969-4.547-16.671-9.865-18.891-8.114a1.724,1.724,0,0,0-.567.867,3.7,3.7,0,0,0-.133,1.183c.005.194.018.373.03.522.156,2.066,1.771,3.943,4.129,5.641a1.2,1.2,0,0,0-.279.12c-.989.586-.973,2.457-.608,3.655.238.783.915,2.211,8.616,6.674q.788.457,1.675.956C-1853.185,835.308-1852.88,835.478-1852.686,835.585Zm5.175-4.553a6.2,6.2,0,0,1-1.033-.385A10.365,10.365,0,0,1-1847.512,831.032Z" transform="translate(-572.693 -899.766)" fill="#33b4e8"/>
    <path id="Pfad_269" data-name="Pfad 269" d="M-1513.094,703.856c-30.964-1.991-43-3.907-46.965-5.513a43.053,43.053,0,0,0-13.025-3.533,52.682,52.682,0,0,0-5.92-.487,19.145,19.145,0,0,0-5.221.728c.006.071.012.144.017.216.064.807.09,1.681.08,2.609,0,.091,0,.183,0,.275-.144,8.147-2.933,20.2-6.481,26.5.079.137.161.272.242.408l.016.028c14.952,24.95,67.761,31.986,88.84,28.66a30.171,30.171,0,0,0,4.522-1.027c18.616-3.9,82.814-60.745,73.941-97.629a22.71,22.71,0,0,0-10.654-14.637,22.582,22.582,0,0,0-16.138-2.41c-6.166,1.377-8.973,5.093-21.732,21.668-8.016,10.411-12.872,16.718-16.424,21.4-6.284,8.28-8.479,11.46-16.849,23.249Q-1509.18,704.108-1513.094,703.856Z" transform="translate(-788.087 -761.39)" fill="#aae0f5"/>
    <path id="Pfad_270" data-name="Pfad 270" d="M-1472.12,484.31c.29.421.619.9.981,1.429.662.967,1.438,2.1,2.306,3.386a23.6,23.6,0,0,1,2.407,4.044c.756,1.725,1.134,2.587,1.087,3.637-.133,2.971-3.524,6.1-5.767,5.559-1.122-.273-1.747-1.416-3.5-6.693-.637-1.914-1.194-3.686-1.678-5.287-.521-1.723-.956-3.249-1.311-4.533a3.631,3.631,0,0,0-1.3-.936,3.416,3.416,0,0,0-2.643-.027,3.46,3.46,0,0,0-2.029,2.558,3.63,3.63,0,0,0,.032,1.523c.132,1.788.284,3.411.435,4.839.049.463.1.906.146,1.327.092.8.182,1.532.265,2.172.146,1.122.293,2.164.458,3.237.359,2.339.8,4.824,1.468,8.605.495,2.795.742,4.192.846,4.548a26.022,26.022,0,0,0,6.568,10.76,40.72,40.72,0,0,0,3.792,3.184c2.461,1.991,5.969,4.973,10.1,9l.09.087a33.263,33.263,0,0,0,7.97-8.615,33.259,33.259,0,0,0,4.418-10.577l-.131-.187q-.3-.419-.621-.9a54.345,54.345,0,0,1-4.949-9.1c-.459-1.077-.824-2.032-1.143-2.937-.546-1.548-.954-2.949-1.455-4.561-.39-1.254-.835-2.634-1.445-4.312a92.568,92.568,0,0,0-5.271-11.81c-1.219-.976-2.549-1.962-4-2.937q-.535-.36-1.063-.7-.422-.272-.84-.532Z" transform="translate(-871.417 -638.362)" fill="#33b4e8"/>
    <path id="Pfad_271" data-name="Pfad 271" d="M-1369.246,122.6c-18.335-1.824-35.651-17.954-35.126-34.881.227-7.324,3.743-13.158,6.608-16.819.359-1.424.969-2.86,1.618-5.2a54.384,54.384,0,0,0,1.628-8.633c.4-2.921.79-6.687.972-11.15-6.1-1.041-11.9-1.774-17.312-2.277-6.487,37.433-14.084,84.152-14.084,84.152a59.247,59.247,0,0,0,15.955,5.9c13.554,2.877,24.4.137,30.076-1.365,8.389-2.221,16.521-4.374,22.944-10.918A35.892,35.892,0,0,1-1369.246,122.6Z" transform="translate(-917.141 -298.791)" fill="#edefef"/>
    <path id="Pfad_272" data-name="Pfad 272" d="M-1101.021,152.012l-18.246,12.485,12.621,16.824h0a108.2,108.2,0,0,0,2.981-10.46A114.506,114.506,0,0,0-1101.021,152.012Z" transform="translate(-1155.256 -383.204)" fill="#fbcebf"/>
    <path id="Pfad_273" data-name="Pfad 273" d="M-1243.236,73.784c.118-1.893.205-3.01.426-3.155a229.614,229.614,0,0,0-42.026-14.091c-4.444-1.025-8.758-1.877-12.927-2.588-.182,4.463-.577,8.229-.972,11.15a54.412,54.412,0,0,1-1.628,8.633c-.649,2.336-1.259,3.772-1.618,5.2a103.341,103.341,0,0,0,29.362,4.319c2.45,0,4.816-.088,7.092-.247Z" transform="translate(-1012.926 -306.815)" fill="#fbcebf"/>
    <path id="Pfad_274" data-name="Pfad 274" d="M-1053.859,161.773q-.046-.719-.105-1.483a28.863,28.863,0,0,1-.652-6.75c-.238-2.348-.425-4.144-.577-5.512l-1.267.831v0l-.077.053a114.506,114.506,0,0,1-2.644,18.85,108.131,108.131,0,0,1-2.981,10.46h0l2.485,3.312,5.057-6.283C-1054.007,173.019-1053.392,169.135-1053.859,161.773Z" transform="translate(-1199.739 -380.101)" fill="#f7b3a2"/>
    <path id="Pfad_275" data-name="Pfad 275" d="M-1036.193,132.57l.693-.286.373-.161a10.6,10.6,0,0,0-.474-2.633l-.165-.074C-1035.988,129.56-1036.075,130.677-1036.193,132.57Z" transform="translate(-1219.969 -365.602)" fill="#c38851"/>
    <path id="Pfad_276" data-name="Pfad 276" d="M-1021.218,340.042h0Z" transform="translate(-1231.634 -529.676)" fill="#fff"/>
    <path id="Pfad_277" data-name="Pfad 277" d="M-1039.689,236.507l-6.17,7.665-5.057,6.283,6.618,8.822.4-.823,9.5-19.576A23.853,23.853,0,0,1-1039.689,236.507Z" transform="translate(-1208.501 -449.024)" fill="#fff"/>
    <path id="Pfad_278" data-name="Pfad 278" d="M-1030.876,94.7q-.034,1.254-.071,2.514-.082,2.75-.184,5.469h0a19.141,19.141,0,0,1,.406,2.2h0l0,.015q.082.645.133,1.3v.008h0c.15,1.909.126,3.865.146,5.795a28.857,28.857,0,0,0,.651,6.75,13.3,13.3,0,0,0,.52,1.62,10.645,10.645,0,0,0,2.9,4.149,15.252,15.252,0,0,0,2.092,1.525,23.855,23.855,0,0,0,5.293,2.372,25.47,25.47,0,0,0,10.53,1.057c.586-.069,1.009-.147,1.4-.212.487-.08,1.23-.2,2.145-.4,3.933-.837,11.037-3.028,14.543-9.151a15.128,15.128,0,0,0,2.019-5.7c.4-3.084-.428-4.764-1.209-6.976a194.323,194.323,0,0,0-22.937-8.082C-1018.972,97.119-1025.131,95.738-1030.876,94.7Z" transform="translate(-1223.911 -338.559)" fill="#33b4e8"/>
    <path id="Pfad_279" data-name="Pfad 279" d="M-1322.923-147.752c2.563.12,12.117.564,26.859,5.21a175.583,175.583,0,0,1,31.706,13.593v.024a186.688,186.688,0,0,1,19.284,4.811,186.72,186.72,0,0,1,20.886,7.8c.335-2.159,1.334-3.781,1.775-9.7.38-5.1.57-7.648-.717-10.032-2.2-4.069-5.553-2.963-8.3-6.7-3.589-4.889.519-9.01-2.419-15.523-2.842-6.3-9.643-8.994-11.482-9.722-7.27-2.879-9.684.5-16.661-2.118-7.192-2.7-6.178-6.872-13.571-10.4-5.256-2.506-10.243-2.313-20.219-1.926-10.2.4-15.293.594-19.834,2.888-8.211,4.149-15.239,13.148-15.453,23.011a27.565,27.565,0,0,0,1.283,8.714C-1327.709-147.876-1325.411-147.869-1322.923-147.752Z" transform="translate(-990.268 -122.499)" fill="#33b4e8"/>
    <path id="Pfad_280" data-name="Pfad 280" d="M-1090.443,387.594l-.016.007Z" transform="translate(-1177.697 -566.718)" fill="#f7f7f7"/>
    <path id="Pfad_281" data-name="Pfad 281" d="M-1108.151,388.152a44.711,44.711,0,0,1-4.659,1.62A40.41,40.41,0,0,0-1108.151,388.152Z" transform="translate(-1160.286 -567.152)" fill="#f7f7f7"/>
    <path id="Pfad_282" data-name="Pfad 282" d="M-1277.2,207.525a56.652,56.652,0,0,0,4.9-14.555l-12.621-16.824-1.09.746-2.958-5.8.118-.049c-2.276.159-4.642.248-7.092.247a103.341,103.341,0,0,1-29.362-4.319c-2.864,3.661-6.38,9.5-6.608,16.819-.524,16.926,16.791,33.056,35.126,34.881a35.892,35.892,0,0,0,13.279-1.19h0A56.526,56.526,0,0,0-1277.2,207.525Z" transform="translate(-989.597 -394.853)" fill="#f7f7f7"/>
    <path id="Pfad_283" data-name="Pfad 283" d="M-1059.674,287.939l-2.485-3.312,5.587,7.6,3.388,4.614a44.834,44.834,0,0,1-3.388,3.235,43.9,43.9,0,0,0,3.461-3.2h0l.079-.082-.024-.031Z" transform="translate(-1199.742 -486.509)" fill="#f7f7f7"/>
    <path id="Pfad_284" data-name="Pfad 284" d="M-1092.684,296.84l-3.388-4.614c-1.257-1.711-4.329-5.891-5.587-7.6h0a56.657,56.657,0,0,1-4.9,14.555,56.533,56.533,0,0,1-6.311,9.951h0l.013,0a44.693,44.693,0,0,0,4.659-1.62l.281-.117.016-.007a44.546,44.546,0,0,0,5.431-2.724,44.577,44.577,0,0,0,6.4-4.583A44.81,44.81,0,0,0-1092.684,296.84Z" transform="translate(-1160.241 -486.505)" fill="#fff"/>
    <path id="Pfad_285" data-name="Pfad 285" d="M-1115.286,144.52l.077-.053q.059-.9.118-1.809l.613-.265-.693.286-22.291,9.217-.118.049,2.958,5.8,1.09-.746Z" transform="translate(-1140.99 -375.712)" fill="#f7f7f7"/>
    <path id="Pfad_286" data-name="Pfad 286" d="M-1029.814,60.474q-.061,3.754-.162,7.564c5.745,1.039,11.9,2.42,18.384,4.256a194.332,194.332,0,0,1,22.937,8.082h0c-.237-1.3-.436-2.725-.562-4.259-.083-1.015-.128-1.984-.142-2.9l-.285-.126a186.717,186.717,0,0,0-20.886-7.8A186.693,186.693,0,0,0-1029.814,60.474Z" transform="translate(-1224.812 -311.898)" fill="#fff"/>
    <path id="Pfad_287" data-name="Pfad 287" d="M-1332-5.094A229.618,229.618,0,0,1-1289.972,9l.166.074.527.236h0q.1-2.719.184-5.469.038-1.26.071-2.514.1-3.81.162-7.564v-.024a175.582,175.582,0,0,0-31.706-13.593c-14.743-4.646-24.3-5.091-26.859-5.21-2.488-.116-4.786-.123-6.856-.068-2.322.062-4.357.2-6.038.357q-.745,6.09-1.794,12.406-.2,1.2-.409,2.386l.288.027c5.416.5,11.207,1.236,17.311,2.277C-1340.755-6.971-1336.441-6.119-1332-5.094Zm38.759,4.015a2.8,2.8,0,0,1-2.8-2.8,2.8,2.8,0,0,1,2.8-2.8,2.8,2.8,0,0,1,2.8,2.8A2.8,2.8,0,0,1-1293.239-1.079Z" transform="translate(-965.764 -245.184)" fill="#005480"/>
    <path id="Pfad_288" data-name="Pfad 288" d="M-1035.635,141.127l-.613.265q-.059.9-.118,1.809v0l1.267-.831.431-.283h0v-.008q-.067-.65-.133-1.3v-.015h0l-.459.2Z" transform="translate(-1219.834 -374.445)" fill="#fff"/>
    <circle id="Ellipse_2" data-name="Ellipse 2" cx="2.802" cy="2.802" r="2.802" transform="translate(-2261.804 -251.867)" fill="#fff"/>
    <path id="Pfad_289" data-name="Pfad 289" d="M-1708.607-88.889a14.886,14.886,0,0,1,11.025-4.458,16.6,16.6,0,0,1,6.059,1.118,6.7,6.7,0,0,0,.095-1.118c0-5.8-7.49-10.5-16.728-10.5-7.226,0-13.382,2.877-15.721,6.906C-1716.42-96.666-1710.278-93.321-1708.607-88.889Z" transform="translate(-684.276 -183.893)" fill="#fff"/>
    <path id="Pfad_290" data-name="Pfad 290" d="M-1773.428-60.1a9.292,9.292,0,0,1,2.314-4.52c-1.671-4.431-7.813-7.777-15.271-8.055-.333-.012-.669-.019-1.007-.019-9.239,0-16.728,4.7-16.728,10.5a6.8,6.8,0,0,0,.332,2.091Z" transform="translate(-621.769 -208.164)" fill="#fff"/>
    <path id="Pfad_291" data-name="Pfad 291" d="M-1662.942-51.871a9.294,9.294,0,0,0-2.314,4.52h22.611a12.7,12.7,0,0,1,4.169.7c-.374-3.75-3.277-6.948-7.382-8.559a16.6,16.6,0,0,0-6.059-1.118A14.885,14.885,0,0,0-1662.942-51.871Z" transform="translate(-729.942 -220.911)" fill="#fff"/>
    <path id="Pfad_292" data-name="Pfad 292" d="M-1800.491-15.01a12.7,12.7,0,0,0-4.169-.7h-55.858a12.722,12.722,0,0,0-12.722,12.722h0a4.95,4.95,0,0,0,4.95,4.95h71.4a4.95,4.95,0,0,0,4.95-4.95h0A12.727,12.727,0,0,0-1800.491-15.01Z" transform="translate(-567.927 -252.552)" fill="#fff"/>
    <path id="Pfad_293" data-name="Pfad 293" d="M-2366.2,186.114c2.147-1.82,5.691-3.01,9.7-3.01a18.587,18.587,0,0,1,5.331.756,3.5,3.5,0,0,0,.084-.756c0-3.914-6.591-7.087-14.721-7.087-6.359,0-11.777,1.941-13.835,4.66C-2373.078,180.865-2367.672,183.123-2366.2,186.114Z" transform="translate(-173.45 -401.904)" fill="#fff"/>
    <path id="Pfad_294" data-name="Pfad 294" d="M-2423.247,205.54a5.919,5.919,0,0,1,2.037-3.048c-1.469-2.991-6.875-5.249-13.439-5.437q-.44-.013-.886-.013c-8.13,0-14.721,3.173-14.721,7.087a3.625,3.625,0,0,0,.292,1.411Z" transform="translate(-118.442 -418.282)" fill="#fff"/>
    <path id="Pfad_295" data-name="Pfad 295" d="M-2326.013,211.093a5.921,5.921,0,0,0-2.037,3.048h22.508a8.656,8.656,0,0,1,.98.057c-.54-2.35-3.007-4.332-6.419-5.359a18.589,18.589,0,0,0-5.332-.756C-2320.323,208.083-2323.866,209.273-2326.013,211.093Z" transform="translate(-213.639 -426.882)" fill="#fff"/>
    <path id="Pfad_296" data-name="Pfad 296" d="M-2413.816,244.077h0a8.584,8.584,0,0,0-7.6-8.527,8.649,8.649,0,0,0-.98-.057h-54.378q-.212,0-.422.011c-.236,3.532-.5,7.458-.865,11.914h60.908A3.34,3.34,0,0,0-2413.816,244.077Z" transform="translate(-96.78 -448.234)" fill="#fff"/>
  </g>
</svg>
