<svg width="370" height="288" viewBox="0 0 370 288" fill="none" xmlns="http://www.w3.org/2000/svg">
<path d="M280.512 18.096C280.512 18.096 303.503 27.84 249.647 13.7143C191.63 -1.50854 164.279 -7.33026 120.738 19.728C77.198 46.7863 51.2773 15.6892 21.7049 60.5212C-7.86764 105.353 18.445 160.663 60.9744 165.943C103.504 171.223 110.587 169.577 125.676 181.289C140.765 193.001 170.599 208.896 234.022 190.025C297.444 171.154 280.512 18.096 280.512 18.096Z" fill="#D0D0E4"/>
<path d="M142.705 22.2857C130.325 19.5429 53.9871 -23.2868 53.9871 66.8572C53.9871 173.177 135.435 151.2 195.316 174.391C255.197 197.582 288.504 218.4 323.578 214.286C358.653 210.171 371.719 182.743 355.902 131.314C340.084 79.8857 394.394 46.6286 316.66 10.8823C262.37 -14.0571 227.983 19.9749 195.316 22.848C162.649 25.7212 155.084 25.0286 142.705 22.2857Z" fill="#F3F3F8"/>
<path d="M359.54 54.8572H54.5234L54.6816 53.0263H359.34L359.54 54.8572Z" fill="#E7E7F1"/>
<path d="M354.932 89.088H55.4244L55.1631 87.2571H355.283L354.932 89.088Z" fill="#E7E7F1"/>
<path d="M353.914 123.319H66.4212L65.3896 121.488H353.646L353.914 123.319Z" fill="#E7E7F1"/>
<path d="M160.744 40.944H146.012C145.34 40.944 144.795 41.4859 144.795 42.1543C144.795 42.8227 145.34 43.3646 146.012 43.3646H160.744C161.416 43.3646 161.961 42.8227 161.961 42.1543C161.961 41.4859 161.416 40.944 160.744 40.944Z" fill="#E7E7F1"/>
<path d="M162.339 43.3646H147.608C146.936 43.3646 146.391 43.9064 146.391 44.5749C146.391 45.2433 146.936 45.7851 147.608 45.7851H162.339C163.012 45.7851 163.557 45.2433 163.557 44.5749C163.557 43.9064 163.012 43.3646 162.339 43.3646Z" fill="#E7E7F1"/>
<path d="M157.786 45.792H143.055C142.383 45.792 141.838 46.3338 141.838 47.0023C141.838 47.6707 142.383 48.2125 143.055 48.2125H157.786C158.459 48.2125 159.004 47.6707 159.004 47.0023C159.004 46.3338 158.459 45.792 157.786 45.792Z" fill="#E7E7F1"/>
<path d="M301.399 28.9783H286.667C285.995 28.9783 285.45 29.5201 285.45 30.1886C285.45 30.857 285.995 31.3988 286.667 31.3988H301.399C302.071 31.3988 302.616 30.857 302.616 30.1886C302.616 29.5201 302.071 28.9783 301.399 28.9783Z" fill="#E7E7F1"/>
<path d="M302.994 31.3988H288.263C287.591 31.3988 287.046 31.9407 287.046 32.6091C287.046 33.2775 287.591 33.8194 288.263 33.8194H302.994C303.667 33.8194 304.212 33.2775 304.212 32.6091C304.212 31.9407 303.667 31.3988 302.994 31.3988Z" fill="#E7E7F1"/>
<path d="M298.435 33.8263H283.703C283.031 33.8263 282.486 34.3682 282.486 35.0366C282.486 35.705 283.031 36.2469 283.703 36.2469H298.435C299.107 36.2469 299.652 35.705 299.652 35.0366C299.652 34.3682 299.107 33.8263 298.435 33.8263Z" fill="#E7E7F1"/>
<path d="M321.522 91.68H306.791C306.118 91.68 305.573 92.2219 305.573 92.8903C305.573 93.5587 306.118 94.1006 306.791 94.1006H321.522C322.194 94.1006 322.739 93.5587 322.739 92.8903C322.739 92.2219 322.194 91.68 321.522 91.68Z" fill="#E7E7F1"/>
<path d="M323.117 94.1006H308.386C307.714 94.1006 307.169 94.6425 307.169 95.3109C307.169 95.9793 307.714 96.5212 308.386 96.5212H323.117C323.79 96.5212 324.335 95.9793 324.335 95.3109C324.335 94.6425 323.79 94.1006 323.117 94.1006Z" fill="#E7E7F1"/>
<path d="M318.558 96.5211H303.826C303.154 96.5211 302.609 97.063 302.609 97.7314C302.609 98.3998 303.154 98.9417 303.826 98.9417H318.558C319.23 98.9417 319.775 98.3998 319.775 97.7314C319.775 97.063 319.23 96.5211 318.558 96.5211Z" fill="#E7E7F1"/>
<path d="M134.596 75.8537L179.051 63.2297C179.051 63.2297 186.341 62.016 186.031 64.1417C185.722 66.2675 185.124 67.4263 179.656 69.3669C174.189 71.3075 143.894 80.0914 143.894 80.0914C138.814 81.4324 133.543 81.91 128.303 81.504C119.81 80.7977 134.596 75.8537 134.596 75.8537Z" fill="#E7E7F1"/>
<path d="M120.724 71.3075L124.266 70.6012L134.596 75.8537L126.192 79.584L120.724 71.3075Z" fill="#D0D0E4"/>
<path d="M146.391 76.1554C146.391 76.1554 144.534 78.3977 145.325 78.1234C146.116 77.8491 156.796 74.16 157.326 74.0091C157.855 73.8583 157.009 73.7623 157.009 73.7623L146.391 76.1554Z" fill="#D0D0E4"/>
<path d="M185.688 63.3737C183.989 63.7303 179.938 64.6697 179.533 64.7451C179.237 64.8068 178.673 63.2777 179.395 63.168C180.804 62.9204 182.236 62.8261 183.666 62.8869C185.22 62.976 185.688 63.3737 185.688 63.3737Z" fill="#D0D0E4"/>
<path d="M165.016 68.1109L164.87 68.1503C164.789 68.172 164.741 68.2549 164.763 68.3353L164.972 69.1031C164.993 69.1835 165.076 69.2311 165.157 69.2093L165.303 69.1699C165.384 69.1482 165.431 69.0653 165.41 68.9849L165.201 68.2171C165.179 68.1367 165.096 68.0891 165.016 68.1109Z" fill="#D0D0E4"/>
<path d="M166.479 67.6909L166.332 67.7303C166.252 67.752 166.204 67.8349 166.226 67.9153L166.434 68.6831C166.456 68.7635 166.539 68.8111 166.62 68.7893L166.766 68.7499C166.847 68.7282 166.894 68.6453 166.872 68.5649L166.664 67.7971C166.642 67.7166 166.559 67.6691 166.479 67.6909Z" fill="#D0D0E4"/>
<path d="M167.954 67.2723L167.808 67.3117C167.728 67.3335 167.68 67.4163 167.702 67.4967L167.91 68.2645C167.932 68.345 168.015 68.3925 168.096 68.3708L168.242 68.3314C168.322 68.3096 168.37 68.2268 168.348 68.1463L168.14 67.3785C168.118 67.2981 168.035 67.2505 167.954 67.2723Z" fill="#D0D0E4"/>
<path d="M169.485 66.8333L169.339 66.8727C169.258 66.8945 169.211 66.9773 169.232 67.0578L169.441 67.8256C169.463 67.906 169.546 67.9536 169.626 67.9318L169.772 67.8924C169.853 67.8706 169.901 67.7878 169.879 67.7074L169.671 66.9396C169.649 66.8591 169.566 66.8116 169.485 66.8333Z" fill="#D0D0E4"/>
<path d="M148.595 72.8207L148.449 72.8601C148.368 72.8819 148.32 72.9647 148.342 73.0452L148.55 73.813C148.572 73.8934 148.655 73.9409 148.736 73.9192L148.882 73.8798C148.963 73.858 149.01 73.7752 148.989 73.6948L148.78 72.927C148.758 72.8465 148.675 72.799 148.595 72.8207Z" fill="#D0D0E4"/>
<path d="M150.057 72.3989L149.911 72.4383C149.831 72.4601 149.783 72.5429 149.805 72.6233L150.013 73.3912C150.035 73.4716 150.118 73.5191 150.199 73.4974L150.345 73.458C150.426 73.4362 150.473 73.3534 150.451 73.273L150.243 72.5051C150.221 72.4247 150.138 72.3772 150.057 72.3989Z" fill="#D0D0E4"/>
<path d="M151.534 71.9822L151.388 72.0216C151.307 72.0433 151.259 72.1262 151.281 72.2066L151.489 72.9744C151.511 73.0548 151.594 73.1024 151.675 73.0806L151.821 73.0412C151.902 73.0195 151.949 72.9366 151.928 72.8562L151.719 72.0884C151.697 72.008 151.614 71.9604 151.534 71.9822Z" fill="#D0D0E4"/>
<path d="M153.064 71.5431L152.918 71.5825C152.837 71.6043 152.79 71.6871 152.811 71.7676L153.02 72.5354C153.042 72.6158 153.125 72.6634 153.205 72.6416L153.351 72.6022C153.432 72.5804 153.48 72.4976 153.458 72.4172L153.25 71.6494C153.228 71.5689 153.145 71.5214 153.064 71.5431Z" fill="#D0D0E4"/>
<path d="M122.76 157.851L116.571 156.336V13.7006L122.76 15.5246V157.851Z" fill="#E7E7F1"/>
<path d="M198.411 175.605L192.221 173.417V23.1154C192.221 23.1154 194.222 22.9508 195.543 22.8068L198.411 22.4846V175.605Z" fill="#E7E7F1"/>
<path d="M276.565 207.305L270.375 205.193V2.05715C270.375 2.05715 272.342 1.93372 273.717 1.87886C275.093 1.82401 276.585 1.80344 276.585 1.80344L276.565 207.305Z" fill="#E7E7F1"/>
<path d="M332.477 212.613C331.561 212.913 330.623 213.143 329.671 213.298C327.546 213.717 326.288 213.881 326.288 213.881V15.6481L329.726 17.5475C330.999 18.2332 332.477 19.1932 332.477 19.1932V212.613Z" fill="#E7E7F1"/>
<path d="M195.901 62.2012C191.389 62.2012 187.036 63.5726 186.809 68.016V73.8446L184.746 77.0058L186.809 80.4343V98.7018H198.431V91.2C201.671 91.2 204.353 88.5532 204.353 84.7886V69.744C204.332 65.1429 200.557 62.2012 195.901 62.2012Z" fill="#CC9F7A"/>
<path d="M189.855 79.0628C189.308 79.0628 188.783 78.8461 188.397 78.4603C188.01 78.0745 187.792 77.5512 187.792 77.0057C187.792 76.4601 188.01 75.9368 188.397 75.551C188.783 75.1652 189.308 74.9485 189.855 74.9485" stroke="black" stroke-miterlimit="10"/>
<path d="M191.375 73.68C191.375 73.68 186.465 72.1165 186.465 77.2114C186.465 79.6525 187.744 79.1794 188.287 80.448C188.831 81.7165 188.287 85.6937 185.88 86.16C182.256 86.8457 180.805 78.1577 180.805 73.9954C180.805 71.4925 180.674 69.6891 182.93 66.576C184.436 64.5188 187.001 60.3428 191.375 60.5074C202.31 60.9051 203.624 64.2925 204.738 65.9931C205.852 67.6937 205.701 73.2068 204.05 75.5314V72H191.396L191.375 73.68Z" fill="black"/>
<path d="M247.962 132.965L254.772 138.419C255.633 139.109 256.185 140.112 256.305 141.208C256.425 142.303 256.103 143.401 255.411 144.261C254.719 145.12 253.713 145.67 252.614 145.789C251.515 145.909 250.414 145.589 249.552 144.898L242.732 139.437C242.349 139.13 242.104 138.685 242.051 138.199C241.998 137.712 242.14 137.225 242.448 136.843L245.346 133.245C245.499 133.055 245.688 132.897 245.903 132.78C246.117 132.663 246.353 132.59 246.596 132.564C246.839 132.538 247.085 132.56 247.319 132.629C247.553 132.698 247.772 132.812 247.962 132.965Z" fill="#CC9F7A"/>
<path d="M194.133 273.943C250.799 273.943 296.736 267.677 296.736 259.947C296.736 252.218 250.799 245.952 194.133 245.952C137.467 245.952 91.5304 252.218 91.5304 259.947C91.5304 267.677 137.467 273.943 194.133 273.943Z" fill="#F3F3F8"/>
<path d="M179.051 173.04L171.012 205.954L156.844 246.089L164.891 250.786L182.18 215.952L194.36 190.629C194.36 190.629 191.403 179.033 185.777 178.011C179.966 176.976 179.051 173.04 179.051 173.04Z" fill="#303178"/>
<path d="M209.071 163.995C209.071 163.995 210.185 170.352 203.094 179.842L212.922 204.981C212.922 204.981 213.527 207.813 212.922 213.895C212.317 219.977 205.426 256.409 205.426 256.409C205.426 256.409 197.73 255.093 196.485 255.195L200.433 210.672L181.094 175.954C181.094 175.954 186.004 178.697 188.59 174.137C189.057 173.345 189.279 172.434 189.229 171.516C189.179 170.599 188.858 169.717 188.308 168.98C187.82 168.212 186.21 165.813 186.21 165.813L209.071 163.995Z" fill="#151678"/>
<path d="M156.989 247.543L154.65 253.886C154.619 253.971 154.605 254.062 154.609 254.153C154.613 254.244 154.635 254.333 154.674 254.416C154.713 254.498 154.768 254.572 154.836 254.633C154.904 254.694 154.984 254.74 155.07 254.77L170.936 260.4C171.008 260.427 171.085 260.441 171.163 260.441H172.621C172.803 260.441 172.978 260.369 173.107 260.24C173.236 260.112 173.309 259.937 173.309 259.755V259.351C173.309 259.243 173.283 259.136 173.234 259.039C173.185 258.943 173.114 258.859 173.027 258.795L164.086 252.261C163.956 252.165 163.863 252.027 163.825 251.87L163.728 251.493C163.705 251.401 163.663 251.316 163.605 251.242C163.547 251.167 163.474 251.106 163.391 251.061L156.989 247.543Z" fill="#333333"/>
<path d="M196.726 256.162L196.609 263.568C196.607 263.667 196.625 263.766 196.662 263.858C196.699 263.95 196.754 264.035 196.824 264.105C196.893 264.176 196.977 264.233 197.068 264.271C197.16 264.309 197.259 264.329 197.359 264.329L215.824 264.432C215.911 264.433 215.998 264.417 216.079 264.384L217.598 263.856C217.787 263.789 217.942 263.651 218.029 263.471C218.117 263.292 218.13 263.085 218.066 262.896L217.915 262.478C217.875 262.366 217.81 262.264 217.724 262.182C217.638 262.1 217.534 262.039 217.42 262.005L205.763 258.514C205.593 258.466 205.447 258.359 205.35 258.213L204.937 257.582L196.726 256.162Z" fill="#333333"/>
<path d="M208.335 100.313L203.362 97.0903C204.346 97.2549 210.811 99.6206 213.596 101.966L247.501 130.546C249.688 132.151 248.127 134.537 246.765 136.581C245.403 138.624 242.178 142.69 239.448 140.304L208.335 116.304V100.313Z" fill="#C6C2BC"/>
<path d="M206.787 166.217C203.184 166.903 200.969 167.184 194.663 167.17C187.73 167.074 183.948 166.011 183.948 166.011C181.831 165.97 179.818 165.092 178.35 163.571C176.883 162.05 176.081 160.01 176.121 157.899V104.105C176.083 101.996 176.885 99.9577 178.353 98.438C179.82 96.9183 181.832 96.0414 183.948 96L186.836 96.1577C186.836 96.1577 188.294 98.1737 192.971 98.0709C197.647 97.968 198.239 96.768 198.239 96.768L202.001 96.9737C204.117 97.0169 206.129 97.8953 207.596 99.4161C209.064 100.937 209.866 102.976 209.827 105.086L210.666 160.265C210.666 164.736 210.398 165.504 206.787 166.217Z" fill="#EFEBE3"/>
<path d="M182.78 161.59L187.497 168.905C188.093 169.831 188.297 170.955 188.063 172.03C187.828 173.106 187.175 174.044 186.246 174.64C185.318 175.235 184.19 175.438 183.112 175.204C182.033 174.97 181.092 174.319 180.495 173.393L175.775 166.072C175.51 165.661 175.419 165.162 175.523 164.685C175.627 164.207 175.918 163.791 176.33 163.526L180.218 161.034C180.631 160.769 181.134 160.679 181.614 160.783C182.095 160.887 182.514 161.177 182.78 161.59Z" fill="#CC9F7A"/>
<path d="M176.121 114.014L184.312 123.202L173.804 137.671C173.517 138.063 173.342 138.524 173.297 139.007C173.252 139.49 173.34 139.976 173.549 140.414L183.177 160.183C183.79 161.595 182.276 162.816 180.22 164.098C177.772 165.621 175.207 167.047 173.976 165.717L158.433 140.455C157.863 139.526 157.601 138.442 157.684 137.357C157.766 136.271 158.19 135.239 158.894 134.407L176.121 114.014Z" fill="#EFEBE3"/>
<path d="M188.171 56.0269L186.961 55.0652C184.775 53.3278 181.591 53.6862 179.848 55.8657L178.883 57.0722C177.141 59.2517 177.5 62.427 179.686 64.1645L180.896 65.1262C183.082 66.8636 186.267 66.5052 188.01 64.3256L188.974 63.1192C190.717 60.9396 190.357 57.7643 188.171 56.0269Z" fill="black"/>
<path d="M195.88 79.9406C195.88 85.6457 192.324 86.208 192.324 86.208C194.284 91.6937 198.411 91.2 198.411 91.2C201.65 91.2 204.332 88.5532 204.332 84.7886V79.9406H195.88Z" fill="white"/>
<path d="M190.804 72.8914L196.87 81.312" stroke="white" stroke-miterlimit="10"/>
<path d="M187.421 79.9406L193.129 86.5097" stroke="white" stroke-miterlimit="10"/>
<path d="M243.12 255.991C245.331 255.991 247.123 254.204 247.123 252C247.123 249.796 245.331 248.009 243.12 248.009C240.91 248.009 239.118 249.796 239.118 252C239.118 254.204 240.91 255.991 243.12 255.991Z" fill="#333333"/>
<path d="M265.767 255.991C267.86 255.991 269.557 254.299 269.557 252.213C269.557 250.126 267.86 248.434 265.767 248.434C263.674 248.434 261.978 250.126 261.978 252.213C261.978 254.299 263.674 255.991 265.767 255.991Z" fill="#333333"/>
<path d="M265.767 255.12C267.378 255.12 268.683 253.818 268.683 252.213C268.683 250.607 267.378 249.305 265.767 249.305C264.157 249.305 262.851 250.607 262.851 252.213C262.851 253.818 264.157 255.12 265.767 255.12Z" fill="black"/>
<path d="M243.12 255.12C244.731 255.12 246.036 253.818 246.036 252.213C246.036 250.607 244.731 249.305 243.12 249.305C241.51 249.305 240.204 250.607 240.204 252.213C240.204 253.818 241.51 255.12 243.12 255.12Z" fill="black"/>
<path d="M270.134 196.882H259.818V149.39V147.429C259.82 147.138 259.759 146.85 259.641 146.584C259.522 146.318 259.348 146.08 259.131 145.886C257.731 144.705 255.967 144.04 254.134 144.001C252.301 143.962 250.511 144.553 249.062 145.673C248.819 145.866 248.623 146.111 248.489 146.39C248.354 146.669 248.285 146.975 248.285 147.285V149.657V196.896H247.364C245.307 196.896 243.335 197.71 241.881 199.159C240.426 200.608 239.608 202.574 239.606 204.624V249.449C239.606 249.813 239.751 250.162 240.009 250.419C240.267 250.676 240.617 250.821 240.981 250.821H278.325C278.69 250.821 279.04 250.676 279.298 250.419C279.556 250.162 279.701 249.813 279.701 249.449V206.4C279.695 203.874 278.685 201.453 276.892 199.669C275.098 197.884 272.668 196.882 270.134 196.882ZM249.647 148.382V147.271C249.646 147.165 249.67 147.06 249.716 146.965C249.763 146.87 249.831 146.787 249.915 146.722C251.068 145.821 252.494 145.337 253.959 145.351C255.515 145.326 257.025 145.873 258.202 146.887C258.276 146.952 258.336 147.032 258.376 147.122C258.417 147.212 258.437 147.31 258.436 147.408V148.375V196.875H249.647V148.382Z" fill="#333333"/>
<path d="M256.579 257.321C258.907 257.321 260.795 255.439 260.795 253.118C260.795 250.796 258.907 248.914 256.579 248.914C254.251 248.914 252.363 250.796 252.363 253.118C252.363 255.439 254.251 257.321 256.579 257.321Z" fill="#333333"/>
<path d="M280.01 255.154C282.27 255.154 284.102 253.328 284.102 251.074C284.102 248.821 282.27 246.994 280.01 246.994C277.75 246.994 275.918 248.821 275.918 251.074C275.918 253.328 277.75 255.154 280.01 255.154Z" fill="#333333"/>
<path d="M280.01 254.139C281.708 254.139 283.084 252.767 283.084 251.074C283.084 249.381 281.708 248.009 280.01 248.009C278.312 248.009 276.936 249.381 276.936 251.074C276.936 252.767 278.312 254.139 280.01 254.139Z" fill="black"/>
<path d="M256.579 256.368C258.38 256.368 259.839 254.913 259.839 253.118C259.839 251.323 258.38 249.867 256.579 249.867C254.779 249.867 253.319 251.323 253.319 253.118C253.319 254.913 254.779 256.368 256.579 256.368Z" fill="black"/>
<path d="M70.8364 127.646C70.9217 130.96 70.839 134.276 70.5888 137.582C70.5338 138.075 67.4528 160.21 67.3702 160.56L71.6961 168.432C71.6961 168.432 72.3838 141.963 72.3838 141.003C72.3769 137.431 72.2119 128.722 70.8364 127.646Z" fill="#43D26B"/>
<path d="M57.6456 116.331C59.4316 123.249 62.1207 129.902 65.644 136.121C71.6203 146.825 70.1967 161.328 70.1967 161.328L72.425 179.157C72.425 179.157 75.1003 152.866 74.4882 149.753C73.8761 146.64 71.4553 138.096 66.6687 131.095C61.4901 123.504 57.6456 116.331 57.6456 116.331Z" fill="#1C9026"/>
<path d="M79.2337 198.473C93.0479 198.473 104.246 197.475 104.246 196.245C104.246 195.014 93.0479 194.016 79.2337 194.016C65.4195 194.016 54.2208 195.014 54.2208 196.245C54.2208 197.475 65.4195 198.473 79.2337 198.473Z" fill="black"/>
<path d="M88.0298 143.493C85.1963 163.584 89.5497 197.815 89.5497 197.815C89.4465 199.042 94.8315 198.452 95.8493 198.548C97.2248 198.679 93.0984 194.4 93.6967 187.714C94.0406 183.833 93.009 179.417 92.7683 174.926C92.1768 163.735 90.9251 152.167 90.7601 148.039C90.6225 144.425 94.2813 127.214 94.969 124.039C94.969 123.97 94.8934 123.943 94.859 124.039C93.7586 126.343 88.9376 137.013 88.0298 143.493Z" fill="#43D26B"/>
<path d="M94.3293 162.514C94.3411 162.467 94.3358 162.418 94.3145 162.374C94.2932 162.331 94.2573 162.296 94.2129 162.277C94.1686 162.257 94.1187 162.253 94.0721 162.267C94.0255 162.28 93.985 162.31 93.958 162.35C93.0226 163.618 90.6844 166.834 90.0104 167.925C89.1095 169.385 83.5388 198.459 84.5085 198.782C85.4782 199.104 91.1039 198.782 91.1039 198.782C91.1039 198.782 90.2029 178.711 91.7916 172.814C93.0158 168.377 94.068 164.105 94.3293 162.514Z" fill="#1C9026"/>
<path d="M56.5316 134.811C56.5316 134.811 55.9746 134.914 56.229 135.367C57.2347 137.016 58.1529 138.717 58.98 140.462C59.6677 142.08 63.237 151.433 63.4365 151.927C63.6359 152.421 64.6538 199.029 64.6538 199.029C64.6538 199.029 71.8131 199.989 73.1748 199.714C74.5365 199.44 72.0744 166.629 72.0744 166.629C72.0744 166.629 64.3168 145.57 60.5205 140.414C56.9374 135.518 56.5316 134.811 56.5316 134.811Z" fill="#28AA4D"/>
<path d="M77.7138 116.331L71.4073 181.029C71.0761 184.432 71.0439 187.857 71.311 191.266L71.538 194.153C71.4348 195.387 71.1804 200.235 72.3839 200.537C72.3839 200.537 80.2172 201.079 80.3478 199.769C80.3478 199.769 81.8333 189.271 82.411 182.585C83.5939 169.029 80.9737 147.751 80.7467 141.957C80.4647 135.49 77.7138 116.331 77.7138 116.331Z" fill="#5BBC6B"/>
<path d="M83.7108 126.816C83.7108 126.816 83.2775 138.37 83.3738 143.822C83.4701 149.273 78.7041 184.155 78.7041 184.155C78.3671 187.584 78.429 199.776 78.429 199.776C78.3259 201.01 90.3543 198.699 90.3543 198.699C89.6012 194.437 89.3817 190.097 89.701 185.781C90.0448 181.899 89.2952 177.621 89.0614 173.129C88.4699 161.938 87.3764 150.247 87.2114 146.119C87.0532 142.128 85.5746 133.001 85.2857 126.782C85.1344 123.504 83.8209 122.544 83.7108 126.816Z" fill="#28AA4D"/>
<path d="M79.2337 245.115C93.0479 245.115 104.246 243.369 104.246 241.214C104.246 239.059 93.0479 237.312 79.2337 237.312C65.4195 237.312 54.2208 239.059 54.2208 241.214C54.2208 243.369 65.4195 245.115 79.2337 245.115Z" fill="#333333"/>
<path d="M79.2337 198.473C65.4171 198.473 54.2208 197.472 54.2208 196.245V241.214H104.246V196.245C104.246 197.486 93.0502 198.473 79.2337 198.473Z" fill="#333333"/>
</svg>
