<?xml version="1.0" encoding="UTF-8" standalone="no"?>
<svg
   width="582.68"
   height="401.996"
   viewBox="0 0 582.68 561.996"
   version="1.1"
   id="svg47"
   sodipodi:docname="51c0d42ff63d5136da557acfb5816260.svg"
   xmlns:inkscape="http://www.inkscape.org/namespaces/inkscape"
   xmlns:sodipodi="http://sodipodi.sourceforge.net/DTD/sodipodi-0.dtd"
   xmlns="http://www.w3.org/2000/svg"
   xmlns:svg="http://www.w3.org/2000/svg">
  <defs
     id="defs51" />
  <sodipodi:namedview
     id="namedview49"
     pagecolor="#ffffff"
     bordercolor="#666666"
     borderopacity="1.0"
     inkscape:pageshadow="2"
     inkscape:pageopacity="0.0"
     inkscape:pagecheckerboard="0" />
  <g
     id="Gruppe_38"
     data-name="Gruppe 38"
     transform="translate(-520.003 -474.739)">
    <path
       id="Pfad_352"
       data-name="Pfad 352"
       d="M68.027,143.1c-21.339,26.017-38.638,59.292-31.775,92.233,4.23,20.3,17.134,37.765,23.116,57.621,9.3,30.863,1.365,65.611,14.142,95.2,11.045,25.579,37.139,43.279,64.791,46.7s120.405,3.418,141.749-14.49c19.623-16.463,104.914-21.381,127.644-26.6,26.677-6.122,51.2-22.866,64.7-46.676,8.8-15.519,12.725-34.67,6.619-51.432-6.625-18.186-23.368-30.343-38.663-42.2C417.319,235.6,394.809,214.69,385.4,187.112c-7.818-22.911-5.767-48.156-12.526-71.4-13.038-44.841-59.994-73.891-105.707-69.354-20.531,2.038-42.448,7.3-62.658,11.474-25.19,5.2-69.234-6.521-91.186,6.816C88.573,79.681,86.385,120.715,68.027,143.1Z"
       transform="translate(1155.703 835.496) rotate(150)"
       fill="#fff" />
    <path
       id="Pfad_353"
       data-name="Pfad 353"
       d="M331.245,282.981s-31.363-70.695-1.193-82.99a5.762,5.762,0,0,1,7.716,3.775c3.037,10.791,6.506,21.479,10.536,31.941,5.243,13.612,12.124,25.947,19.462,38.514,3.3,5.644,6.672,11.536,7.206,18.05a43.967,43.967,0,0,1-.149,6.809c-.656,8.894-1.026,17.8-1.4,26.713-.258,6.19-2.709,16.337-.168,22.16,1.225,2.809,5.514,5.839,7.728,7.928,1.749,1.651,39.346,34,40.455,32.889l-63.81,46s-53.255-42.5-110.464-89.705l25.062-125.712Z"
       transform="translate(572.119 473.259)"
       fill="#f2d4c7" />
    <path
       id="Pfad_355"
       data-name="Pfad 355"
       d="M338.845,292s-17.586,25.511-12.6,98.872l37.737-36.983Z"
       transform="translate(564.745 464.542)"
       fill="#f2d4c7" />
    <path
       id="Pfad_356"
       data-name="Pfad 356"
       d="M314.461,395.97,327,423.657c-25.7,3.514-47.83-3.36-65.545-13.477-30.712-17.552-48.21-44.868-48.21-44.868l47.422-32.052,51.688,18.268Z"
       transform="translate(575.317 460.651)"
       fill="#f2d4c7" />
    <path
       id="Pfad_357"
       data-name="Pfad 357"
       d="M303.52,406.5l-42.06,3.677c-30.712-17.552-48.21-44.868-48.21-44.868l47.422-32.052,51.688,18.268,3.514,40.267A13.577,13.577,0,0,1,303.52,406.5Z"
       transform="translate(575.317 460.651)"
       fill="#f2d4c7"
       style="mix-blend-mode: multiply;isolation: isolate" />
    <path
       id="Pfad_361"
       data-name="Pfad 361"
       d="M331.053,286.841,318.675,387.222l-70.342-52.53L266.9,240.5l35.322,12.68Z"
       transform="translate(572.009 469.399)"
       fill="#f2d4c7"
       style="mix-blend-mode: multiply;isolation: isolate" />
    <g
       id="Gruppe_20"
       data-name="Gruppe 20"
       transform="translate(733.936 564.837)">
      <rect
         id="Rechteck_15"
         data-name="Rechteck 15"
         width="157.113"
         height="301.294"
         rx="15"
         fill="#345067" />
      <path
         id="Rechteck_16"
         data-name="Rechteck 16"
         d="M8.761,0H278.8a8.762,8.762,0,0,1,8.762,8.762v125.86a8.761,8.761,0,0,1-8.761,8.761H8.761A8.761,8.761,0,0,1,0,134.621V8.761A8.761,8.761,0,0,1,8.761,0Z"
         transform="translate(150.247 6.865) rotate(90)"
         fill="#fff" />
      <path
         id="Pfad_362"
         data-name="Pfad 362"
         d="M303.937,95.891v271.7A7.932,7.932,0,0,1,296,375.524H168.491a7.94,7.94,0,0,1-7.481-5.28,8,8,0,0,0,2.654.453H291.176a7.937,7.937,0,0,0,7.934-7.934V91.064a8,8,0,0,0-.453-2.654A7.949,7.949,0,0,1,303.937,95.891Z"
         transform="translate(-153.692 -81.095)"
         fill="#6ba6df"
         opacity="0.193" />
    </g>
    <path
       id="Pfad_379"
       data-name="Pfad 379"
       d="M169.045,106.372a2.967,2.967,0,1,1-3.247-2.657A2.967,2.967,0,0,1,169.045,106.372Z"
       transform="translate(646.4 475.995)"
       fill="#20213b" />
    <ellipse
       id="Ellipse_7"
       data-name="Ellipse 7"
       cx="8.693"
       cy="8.693"
       rx="8.693"
       ry="8.693"
       transform="translate(747.916 588.418) rotate(-45)"
       fill="#b6cfe2"
       opacity="0.369" />
    <path
       id="Pfad_380"
       data-name="Pfad 380"
       d="M8.672,3.915A4.347,4.347,0,1,1,3.915.022,4.347,4.347,0,0,1,8.672,3.915Z"
       transform="matrix(0.995, 0.105, -0.105, 0.995, 868.423, 579.762)"
       fill="#b6cfe2"
       opacity="0.369" />
    <path
       id="Pfad_381"
       data-name="Pfad 381"
       d="M8.672,3.915A4.347,4.347,0,1,1,3.915.022,4.347,4.347,0,0,1,8.672,3.915Z"
       transform="matrix(0.995, 0.105, -0.105, 0.995, 855.864, 579.699)"
       fill="#b6cfe2"
       opacity="0.369" />
    <path
       id="Pfad_382"
       data-name="Pfad 382"
       d="M8.672,3.915A4.347,4.347,0,1,1,3.915.022,4.347,4.347,0,0,1,8.672,3.915Z"
       transform="matrix(0.995, 0.105, -0.105, 0.995, 843.305, 579.635)"
       fill="#b6cfe2"
       opacity="0.369" />
    <path
       id="Pfad_383"
       data-name="Pfad 383"
       d="M50.018,4.225,2.329,8.992A2.124,2.124,0,0,1,.011,7.1h0a2.124,2.124,0,0,1,1.9-2.318L49.6.011a2.124,2.124,0,0,1,2.318,1.9h0A2.123,2.123,0,0,1,50.018,4.225Z"
       transform="matrix(0.995, 0.105, -0.105, 0.995, 752.189, 595.774)"
       fill="#b6cfe2"
       opacity="0.369" />
    <path
       id="Pfad_384"
       data-name="Pfad 384"
       d="M64.893,4.226,2.329,10.479a2.124,2.124,0,0,1-2.318-1.9h0a2.123,2.123,0,0,1,1.9-2.317L64.472.011a2.123,2.123,0,0,1,2.317,1.9h0A2.125,2.125,0,0,1,64.893,4.226Z"
       transform="matrix(0.995, 0.105, -0.105, 0.995, 752.306, 601.894)"
       fill="#b6cfe2"
       opacity="0.369" />
    <rect
       id="Rechteck_17"
       data-name="Rechteck 17"
       width="117"
       height="97"
       rx="11"
       transform="translate(754 689)"
       fill="#b0f59c" />
    <g
       id="Gruppe_36"
       data-name="Gruppe 36"
       transform="translate(715 665.944)">
      <g
         id="Gruppe_25"
         data-name="Gruppe 25"
         transform="translate(0.375 3.849)"
         opacity="0.193">
        <g
           id="Gruppe_21"
           data-name="Gruppe 21"
           transform="translate(0 103.271)">
          <path
             id="Pfad_364"
             data-name="Pfad 364"
             d="M151.273,342.976a15.325,15.325,0,0,1-7.517-1.97L140.3,339.07a15.4,15.4,0,1,1,15.065-26.857l3.452,1.935a15.4,15.4,0,0,1-7.547,28.828Z"
             transform="translate(-132.436 -310.242)"
             fill="#6ba6df" />
        </g>
        <g
           id="Gruppe_22"
           data-name="Gruppe 22"
           transform="translate(2.179 68.011)">
          <path
             id="Pfad_365"
             data-name="Pfad 365"
             d="M157.139,306.346a15.329,15.329,0,0,1-8.033-2.272l-6.912-4.238a15.4,15.4,0,1,1,16.093-26.252l6.913,4.238a15.4,15.4,0,0,1-8.062,28.525Z"
             transform="translate(-134.842 -271.311)"
             fill="#6ba6df" />
        </g>
        <g
           id="Gruppe_23"
           data-name="Gruppe 23"
           transform="translate(3.728 33.328)">
          <path
             id="Pfad_366"
             data-name="Pfad 366"
             d="M161.215,269.215a15.323,15.323,0,0,1-7.731-2.092l-9.279-5.4A15.4,15.4,0,1,1,159.7,235.108l9.278,5.4a15.4,15.4,0,0,1-7.76,28.706Z"
             transform="translate(-136.552 -233.016)"
             fill="#6ba6df" />
        </g>
        <g
           id="Gruppe_24"
           data-name="Gruppe 24"
           transform="translate(5.216)">
          <path
             id="Pfad_367"
             data-name="Pfad 367"
             d="M159.47,230.453a15.32,15.32,0,0,1-7.743-2.1l-5.891-3.436a15.4,15.4,0,1,1,15.516-26.6l5.891,3.436a15.4,15.4,0,0,1-7.774,28.7Z"
             transform="translate(-138.195 -196.218)"
             fill="#6ba6df" />
        </g>
      </g>
      <g
         id="Gruppe_26"
         data-name="Gruppe 26"
         transform="translate(0 104.427)">
        <path
           id="Pfad_368"
           data-name="Pfad 368"
           d="M149.528,337.69a14.235,14.235,0,0,1-6.987-1.831l-3.209-1.8a14.309,14.309,0,0,1,14-24.96l3.207,1.8a14.31,14.31,0,0,1-7.013,26.79Z"
           transform="translate(-132.022 -307.269)"
           fill="#f2d4c7" />
      </g>
      <g
         id="Gruppe_27"
         data-name="Gruppe 27"
         transform="translate(1.694 68.685)">
        <path
           id="Pfad_369"
           data-name="Pfad 369"
           d="M155.333,301.492a14.737,14.737,0,0,1-7.724-2.185l-6.647-4.075a14.8,14.8,0,1,1,15.476-25.243l6.646,4.075a14.806,14.806,0,0,1-7.751,27.428Z"
           transform="translate(-133.893 -267.805)"
           fill="#f2d4c7" />
      </g>
      <g
         id="Gruppe_28"
         data-name="Gruppe 28"
         transform="translate(2.517 33.328)">
        <path
           id="Pfad_370"
           data-name="Pfad 370"
           d="M159.465,264.965a15.323,15.323,0,0,1-7.731-2.092l-9.279-5.4a15.4,15.4,0,0,1,15.492-26.614l9.278,5.4a15.4,15.4,0,0,1-7.76,28.706Z"
           transform="translate(-134.802 -228.766)"
           fill="#f2d4c7" />
      </g>
      <g
         id="Gruppe_30"
         data-name="Gruppe 30"
         transform="translate(4.006)">
        <path
           id="Pfad_372"
           data-name="Pfad 372"
           d="M157.72,226.2a15.32,15.32,0,0,1-7.743-2.1l-5.891-3.436a15.4,15.4,0,0,1,15.516-26.6l5.891,3.436a15.4,15.4,0,0,1-7.774,28.7Z"
           transform="translate(-136.445 -191.968)"
           fill="#f2d4c7" />
      </g>
      <g
         id="Gruppe_35"
         data-name="Gruppe 35"
         transform="translate(2.076 9.278)"
         opacity="0.239"
         style="mix-blend-mode: multiply;isolation: isolate">
        <path
           id="Pfad_376"
           data-name="Pfad 376"
           d="M166.98,278.479a14.8,14.8,0,0,1-22.163,15.955l-6.645-4.076a14.74,14.74,0,0,1-3.857-3.414A14.74,14.74,0,0,0,141,296.236l1.15.706,5.495,3.37a14.725,14.725,0,0,0,7.725,2.186,13.618,13.618,0,0,0,1.576-.087,14.807,14.807,0,0,0,10.032-23.932Z"
           transform="translate(-134.314 -209.405)"
           fill="#f2d4c7" />
        <path
           id="Pfad_377"
           data-name="Pfad 377"
           d="M171.568,241.163a15.384,15.384,0,0,1-22.733,16.764l-9.283-5.4a15.434,15.434,0,0,1-4.3-3.722,15.339,15.339,0,0,0,7.246,9.836l.272.163,9.012,5.236a15.276,15.276,0,0,0,7.726,2.092,14.5,14.5,0,0,0,2.5-.217,15.373,15.373,0,0,0,9.564-24.753Z"
           transform="translate(-134.402 -205.885)"
           fill="#f2d4c7" />
        <path
           id="Pfad_378"
           data-name="Pfad 378"
           d="M169.839,202.212a15.4,15.4,0,0,1-15.016,18.848,15.046,15.046,0,0,1-3.233-.354.565.565,0,0,1-.181-.044c-.2-.054-.408-.11-.616-.146h-.018a15.465,15.465,0,0,1-3.7-1.557l-5.9-3.443a15.143,15.143,0,0,1-4.293-3.722,15.257,15.257,0,0,0,6.032,9.048,13.778,13.778,0,0,0,1.2.788l5.9,3.443a15.465,15.465,0,0,0,3.7,1.557h.018c.208.036.417.091.616.146a.262.262,0,0,0,.118.027,14.6,14.6,0,0,0,3.3.371,15.394,15.394,0,0,0,12.073-24.962Z"
           transform="translate(-134.557 -202.212)"
           fill="#f2d4c7" />
      </g>
    </g>
    <path
       id="Pfad_385"
       data-name="Pfad 385"
       d="M-36.18-13.2a6.685,6.685,0,0,1,4.88,1.72A6.513,6.513,0,0,1-29.54-6.6,6.513,6.513,0,0,1-31.3-1.72,6.685,6.685,0,0,1-36.18,0h-4.26V-13.2Zm.16,11.7a4.611,4.611,0,0,0,3.53-1.35A5.257,5.257,0,0,0-31.22-6.6a5.257,5.257,0,0,0-1.27-3.75,4.611,4.611,0,0,0-3.53-1.35h-2.82V-1.5ZM-15.8-4.92a5.1,5.1,0,0,1-1.33,3.83A5.311,5.311,0,0,1-20.98.2a5.286,5.286,0,0,1-3.85-1.3,5.108,5.108,0,0,1-1.33-3.82V-13.2h1.6v7.88a4.48,4.48,0,0,0,.87,3.05,3.464,3.464,0,0,0,2.71.97,3.464,3.464,0,0,0,2.71-.97,4.48,4.48,0,0,0,.87-3.05V-13.2h1.6Zm11-8.28H-.1a5.118,5.118,0,0,1,3.39.95A3.348,3.348,0,0,1,4.4-9.56a3.018,3.018,0,0,1-.59,1.84,2.541,2.541,0,0,1-1.63,1v.02A3.084,3.084,0,0,1,4.04-5.64a2.942,2.942,0,0,1,.7,1.94A3.247,3.247,0,0,1,3.46-1,5.688,5.688,0,0,1-.12,0H-4.8ZM-.08-7.4a3.449,3.449,0,0,0,2.11-.53,1.925,1.925,0,0,0,.69-1.63q0-2.14-2.8-2.14H-3.2v4.3ZM.26-1.5a3.275,3.275,0,0,0,2.1-.57,1.981,1.981,0,0,0,.7-1.63,1.981,1.981,0,0,0-.7-1.63A3.275,3.275,0,0,0,.26-5.9H-3.2v4.4ZM9.86,0H8.26V-13.2h1.6Zm8.56-13.4a5.389,5.389,0,0,1,5.1,2.8L22.14-9.48a4.3,4.3,0,0,0-1.43-1.87,4.069,4.069,0,0,0-2.27-.55,4.005,4.005,0,0,0-2.39.63,1.912,1.912,0,0,0-.87,1.61,1.63,1.63,0,0,0,.34,1.06,2.694,2.694,0,0,0,1.13.73,11.614,11.614,0,0,0,2.19.55A8.257,8.257,0,0,1,22.55-6a2.962,2.962,0,0,1,1.09,2.44,3.219,3.219,0,0,1-.63,1.97A4.056,4.056,0,0,1,21.22-.27,7.1,7.1,0,0,1,18.54.2a6.949,6.949,0,0,1-3.41-.78,5.432,5.432,0,0,1-2.15-2.08l1.38-1.12a4.1,4.1,0,0,0,1.59,1.83,4.915,4.915,0,0,0,2.63.65,4.678,4.678,0,0,0,2.48-.57,1.8,1.8,0,0,0,.92-1.61,1.6,1.6,0,0,0-.8-1.4,8.262,8.262,0,0,0-2.84-.88A8.713,8.713,0,0,1,14.6-7.08a2.874,2.874,0,0,1-1.1-2.4,3.463,3.463,0,0,1,.6-1.96,4.127,4.127,0,0,1,1.72-1.43A6.016,6.016,0,0,1,18.42-13.4Zm17.26,1.7h-4.6V0h-1.6V-11.7h-4.6v-1.5h10.8ZM-32.96,19h-3.82l-4.1-7.14-1-2h-.02l.08,2.48V19h-3.04V5.8h3.82l4.1,7.14,1,2h.02L-36,12.46V5.8h3.04Zm13.46-2.66V19H-30.04V5.8h10.28V8.46H-26.6v2.68h5.44v2.5H-26.6v2.7Zm13.8-4.48V19H-8.1l-.1-1.56a4.161,4.161,0,0,1-3.78,1.76,6.342,6.342,0,0,1-3.19-.79,5.423,5.423,0,0,1-2.17-2.32,8,8,0,0,1-.78-3.67,7.782,7.782,0,0,1,.8-3.65,5.579,5.579,0,0,1,2.28-2.35,7.111,7.111,0,0,1,3.5-.82,7.22,7.22,0,0,1,3.64.8A5.423,5.423,0,0,1-5.72,8.98L-8.9,10.24a2.442,2.442,0,0,0-.9-1.46,2.714,2.714,0,0,0-1.64-.48,2.778,2.778,0,0,0-2.33,1.04,4.913,4.913,0,0,0-.81,3.06q0,4.16,3.24,4.16A3.211,3.211,0,0,0-9.37,16a1.9,1.9,0,0,0,.75-1.62v-.2H-11.9V11.86ZM4.48,16.02H-.08L-1,19H-4.46L.18,5.8H4.3L8.92,19H5.38Zm-.72-2.34L2.8,10.52,2.22,8.44H2.18L1.64,10.5l-1,3.18ZM19.78,8.46h-4.3V19H12.04V8.46H7.72V5.8H19.78ZM25.18,19H21.74V5.8h3.44ZM35.5,19H31.46L26.76,5.8h3.62l2.42,7.98.72,2.6.7-2.56L36.68,5.8h3.5Zm9.58-8.94L44.7,14.7H41.92l-.38-4.64V5.8h3.54ZM43.3,15.82a2.129,2.129,0,0,1,1.42.44,1.535,1.535,0,0,1,.52,1.24,1.512,1.512,0,0,1-.52,1.22,2.129,2.129,0,0,1-1.42.44,2.089,2.089,0,0,1-1.41-.44,1.526,1.526,0,0,1-.51-1.22,1.549,1.549,0,0,1,.51-1.24A2.089,2.089,0,0,1,43.3,15.82Z"
       transform="translate(812 734)"
       fill="#005480" />
    <g
       id="Gruppe_37"
       data-name="Gruppe 37"
       transform="translate(792.093 629.453)">
      <path
         id="Pfad_13"
         data-name="Pfad 13"
         d="M35.237,9.343H30.672c-.979,1.019-2.018,2-2.994,3-.66.685-1.44,1.294-2.15,1.936-.739.625-1.421,1.283-2.2,1.867a42.055,42.055,0,0,1-9.871,5.994l-1.336.536-1.39.411c-.5.17-1.39.38-1.39.38V35.235a1.235,1.235,0,0,0,1.235,1.235H21.563A1.235,1.235,0,0,0,22.8,35.235v-11.2A1.235,1.235,0,0,1,24.033,22.8h11.2a1.235,1.235,0,0,0,1.234-1.235V10.578A1.235,1.235,0,0,0,35.237,9.343Z"
         transform="translate(4.33 4.33)"
         fill="#00456d" />
      <path
         id="Pfad_14"
         data-name="Pfad 14"
         d="M16.417,24a37.938,37.938,0,0,0,7.216-7.484c.536-.676,1-1.441,1.5-2.151.476-.735,1-1.408,1.431-2.182.186-.329.378-.645.568-.967V1.235A1.235,1.235,0,0,0,25.892,0H14.908a1.235,1.235,0,0,0-1.235,1.235v11.2a1.235,1.235,0,0,1-1.235,1.235H1.235A1.235,1.235,0,0,0,0,14.908V25.892a1.235,1.235,0,0,0,1.235,1.235H10.6A19.6,19.6,0,0,0,16.417,24Z"
         fill="#44aad8" />
    </g>
  </g>
</svg>
